<?xml version="1.0" encoding="UTF-8"?>
<!DOCTYPE svg PUBLIC "-//W3C//DTD SVG 1.1//EN" "http://www.w3.org/Graphics/SVG/1.1/DTD/svg11.dtd">
<svg xmlns="http://www.w3.org/2000/svg" xmlns:xlink="http://www.w3.org/1999/xlink">
    <symbol id="arrow_left" viewBox="0 0 17 8">
        <path d="M0.646446 3.64645C0.451185 3.84171 0.451185 4.15829 0.646447 4.35355L3.82843 7.53553C4.02369 7.73079 4.34027 7.73079 4.53554 7.53553C4.7308 7.34027 4.7308 7.02369 4.53554 6.82842L1.70711 4L4.53553 1.17157C4.73079 0.976307 4.73079 0.659725 4.53553 0.464463C4.34027 0.269201 4.02369 0.269201 3.82842 0.464463L0.646446 3.64645ZM16.5 3.49999L1 3.5L1 4.5L16.5 4.49999L16.5 3.49999Z"/>
    </symbol>
    <symbol id="arrow_right" viewBox="0 0 16 8">
        <path d="M15.8536 3.64645C16.0488 3.84171 16.0488 4.15829 15.8536 4.35355L12.6716 7.53554C12.4763 7.7308 12.1597 7.7308 11.9645 7.53553C11.7692 7.34027 11.7692 7.02369 11.9645 6.82843L14.7929 4L11.9645 1.17157C11.7692 0.976312 11.7692 0.659729 11.9645 0.464467C12.1597 0.269205 12.4763 0.269205 12.6716 0.464467L15.8536 3.64645ZM4.37114e-08 3.5L15.5 3.5L15.5 4.5L-4.37114e-08 4.5L4.37114e-08 3.5Z"/>
    </symbol>
    <symbol id="arrow_down" viewBox="0 0 16 31">
        <path d="M7.293 30.707a1 1 0 001.414 0l6.364-6.364a1 1 0 00-1.414-1.414L8 28.586l-5.657-5.657A1 1 0 00.93 24.343l6.364 6.364zM7 0v30h2V0H7z"/>
    </symbol>
</svg>
