<svg width="826" height="317" viewBox="0 0 826 317" fill="none" xmlns="http://www.w3.org/2000/svg">
<path d="M0 316C5.84742 316 16.8595 314.156 18.5257 313.112C20.6084 311.806 29.4021 303.321 31.9477 302.93C34.4932 302.538 46.5267 299.014 49.0722 297.839C51.6178 296.664 64.8083 293.902 66.1968 292.466C67.5852 291.031 71.0564 287.767 77.0732 294.816C81.8866 300.455 86.484 298.184 88.181 300.577C89.5695 302.361 92.5779 301.282 93.5035 300.76C94.6606 300.107 102.297 294.837 103.686 294.445C105.074 294.053 112.017 292.226 113.405 291.704C114.793 291.182 131.687 289.746 133.075 289.615C134.464 289.485 141.869 297.447 142.794 298.883C143.72 300.319 149.968 283.088 151.588 282.305C153.208 281.522 165.242 273.951 167.324 273.559C169.407 273.168 187.226 282.305 188.614 284.263C190.003 286.221 219.161 265.466 222.632 262.203C226.103 258.939 255.03 245.625 262.435 243.797C269.84 241.97 283.494 260.245 288.353 262.203C293.213 264.161 301.081 255.415 303.858 253.587C306.635 251.76 335.793 279.825 340.653 279.825C345.512 279.825 365.645 255.806 365.645 253.587C365.645 251.368 390.175 242.361 392.026 240.664C393.878 238.967 408.92 218.342 409.382 216.776C409.845 215.21 448.723 182.967 456.822 179.965C464.922 176.963 472.327 159.862 490.608 152.03C508.89 144.198 511.898 122.66 512.824 118.613C513.75 114.566 563.966 112.217 568.132 109.998C572.297 107.778 580.165 92.8974 582.248 88.9813C583.914 85.8484 603.769 104.733 613.489 114.566C626.293 107.343 651.903 92.1141 651.903 88.9813C651.903 85.8484 663.32 71.4024 669.028 64.5711C679.75 62.8741 702.999 58.227 710.219 53.2144C719.244 46.9487 727.112 48.1235 731.278 35.0699C734.61 24.627 752.876 14.4452 761.593 10.6597C779.72 8.9627 817.78 4.65501 825 1" stroke="#FBFF33" stroke-width="2"/>
</svg>
