<svg version="1" xmlns="http://www.w3.org/2000/svg" width="400" height="400" viewBox="0 0 300 300"><path d="M23.4 1.8c-9.5 3.3-17.6 11-21.1 20C.6 26.2.5 33.3.5 150.5v124l2.6 5.5c3.4 7.2 9.7 13.6 16.7 16.8l5.7 2.7h249l5.6-2.6c7.2-3.4 13.4-9.6 16.8-16.8l2.6-5.6v-249l-2.6-5.5C293.6 13 287 6.4 280 3.1L274.5.5l-123-.2C36.2.1 28.2.2 23.4 1.8zm197.5 53.8c5.1 3.7 36 35.3 37.7 38.6 1 2 1.1 3.4.4 5.3-1.5 3.9-32.7 36.2-37.8 39.2-4.1 2.4-5 2.5-18.4 2.4-20.6-.3-21.3-1.8-7.8-15.5 5-5.1 9-9.5 9-9.9 0-.4-4.6-.7-10.3-.7-12.4 0-19.7 1.7-29.1 6.9-8.4 4.6-38.6 26.9-38.6 28.5 0 1.3 36.5 27.4 42.9 30.6 2.4 1.2 7.3 2.8 11 3.6 7.1 1.5 21.8 1.9 23.8.6.9-.5-1.7-3.8-8.2-10.2-5.2-5.2-9.5-10.2-9.5-11.2 0-3.6 3.9-4.8 15.3-4.8 18.4 0 17.5-.5 38 20.4 18.9 19.2 21.6 23 19.5 27-.7 1.3-9.4 10.7-19.3 20.8-21 21.6-20 21-39 20.1-12-.6-14.5-1.3-14.5-4 0-.8 4.1-5.8 9-11.1 5-5.2 9-9.9 9-10.2 0-.4-6.4-1-14.2-1.3-25.1-1.1-35.8-5.7-69.3-30.2C94.3 171.3 86.8 168 69.6 168c-5.6 0-14.5-.3-19.8-.7l-9.8-.6v-16.3c0-14.6.2-16.3 1.8-16.8.9-.3 9.6-.5 19.2-.4 16.9.2 17.8.1 25.9-2.7 9.7-3.3 21.7-10.5 34.5-20.9C147.8 88.4 170.7 79 196.1 79c4.4 0 7.9-.3 7.9-.7 0-.4-4-4.8-9-9.9-8.9-9-9.5-10-8.4-13.9.5-1.9 1.2-2 15.6-1.8 14.5.3 15.2.4 18.7 2.9z"/></svg>