<svg width="7580" height="696" viewBox="0 0 7580 696" fill="none" xmlns="http://www.w3.org/2000/svg"><path d="M6741.26 315.862c-.32 0-1.5-1.583-1.98-1.663-.47-.079-.71 1.267-1.42 1.663-.57.316-1.67.554-2.14.633-.5-1.319-1.52-3.989-1.58-4.116-.08-.158-2.46-1.425-2.62-1.187-.16.237-1.82 3.72-1.98 3.72-.15 0-1.34.554-1.66.554-.31 0-1.03-.554-1.26-.554h-2.38c-.16 0-1.5 1.345-1.74 1.583-.24.237-1.42-4.116-1.5-4.354-.08-.237-1.98-3.799-2.14-3.957-.16-.158-1.9-1.029-2.22-1.029-.25 0-1.16 1.003-1.58 1.504-.5-.897-1.52-2.755-1.58-3.008-.08-.316-1.67-1.029-2.14-1.266-.48-.238-2.06 0-2.22 0-.15 0-1.58 2.928-1.82 3.087-.23.158-1.42-1.504-1.58-1.821-.16-.316-.4-.237-.55 0-.16.238-1.59 4.749-1.82 5.145-.24.396-.95.712-1.35.791-.4.08-1.42 1.029-1.82 1.742-.4.712-1.74.791-1.98.95-.24.158-.47.158-.87.554-.4.395-2.69 3.799-3.01 4.115-.31.317-.87 1.029-1.19 1.029h-2.37c-.24 0-1.66.317-1.98.317-.25 0-1.16-1.478-1.58-2.216-.4-.079-1.3-.238-1.74-.238-.56 0-1.03.238-2.14.554-1.11.317-1.66-.237-1.82-.316-.16-.079-1.66-2.771-2.06-3.166-.39-.396-3.8-2.612-4.03-2.612-.24 0-1.59 1.187-1.9 1.187-.32 0-.64-.158-.87-.317-.24-.158-.95-.474-1.19-.237s-1.74 5.699-1.74 5.936c0 .238-1.27 1.425-1.51 1.504-.23.079-1.5-7.123-1.74-8.232-.24-1.108-.71-.237-.79 0-.08.238-.95 2.454-1.35 2.771-.39.316-1.42-5.778-1.58-6.174-.16-.396-1.42-1.9-1.74-2.375-.32-.474-.47-.633-.71-.554-.24.08-1.19 1.979-1.59 2.296-.39.316-1.5-3.72-1.58-3.958-.08-.237-1.98-3.166-2.29-3.324-.32-.158-1.9 1.504-2.06 1.82-.16.317-1.9 4.829-2.06 5.145-.16.317-3.09 2.612-3.48 2.691-.4.079-1.35-.475-1.59-.554-.23-.079-1.02-3.245-1.66-4.749-.63-1.504-.87-.079-1.03.238-.15.316-1.58 6.173-1.82 6.569-.23.396-.95.95-1.5 1.187-.55.238-1.11-.712-1.35-.712-.23 0-1.58-6.174-1.66-6.569-.08-.396-1.03-1.583-1.74-3.008-.57-1.14-1.03-.739-1.19-.396-.39 1.741-1.2 5.303-1.26 5.62-.08.396-1.19-6.174-1.51-8.232-.31-2.058-1.03-.633-1.03-.396 0 .238-2.85 9.894-3.32 10.686-.48.791-3.56 2.374-3.88 2.533-.25.126-1.53 1.952-2.14 2.849-.52 1.425-1.59 4.337-1.66 4.591-.08.316-3.01 2.612-3.4 2.691-.4.079-1.66-1.742-1.98-1.742-.32 0-1.66 1.9-1.98 2.217-.32.316-3.56 1.662-3.8 1.899-.24.238-1.74 2.691-1.9 3.008-.16.317-1.58.158-1.74.237-.16.08-1.5 1.504-1.82 1.663-.32.158-1.66-.713-1.9-.634-.24.08-1.66 2.058-1.82 2.296-.16.237-1.35-1.346-1.98-1.821-.63-.475-1.74-.237-1.98-.237-.23 0-1.5 1.108-1.74 1.108s-1.42.079-1.66 0-1.58.712-2.06.712c-.47 0-2.77-5.619-3.16-5.778-.32-.126-2.99.053-4.28.159-.24.079-1.66 2.137-1.82 2.216-.16.079-1.5-3.087-1.66-3.324-.16-.238-4.91-1.504-5.15-1.504-.23 0-1.18.712-1.42.87-.24.159-1.9 6.095-1.98 6.332-.08.238-3.4 1.346-3.72 1.504-.32.159-1.58 2.216-1.82 2.216s-1.66-2.612-1.74-2.691c-.08-.079-1.66-.395-1.98-.395-.32 0-2.22-2.138-2.45-2.058-.24.079-1.98 8.469-2.14 8.627-.16.158-1.03-.475-1.35-.633-.31-.158-1.34-3.324-1.5-3.799-.16-.475-1.27-2.217-1.98-3.166-.71-.95-.63-.871-.95-.792-.32.079-3.96 3.483-4.11 3.641-.16.158-1.67 7.044-1.83 7.203-.15.158-.23-.159-1.02-.871-.8-.712-.95-.633-1.11-.396-.16.238-1.74 6.966-1.82 7.282-.08.317-.48.713-.72.792-.23.079-4.51 3.878-5.22 4.274-.71.396-1.27.554-1.9.554-.63 0-3.48-.792-3.72-.792-.24 0-2.06.95-2.29 1.029-.24.079-1.9 2.375-1.98 2.612-.08.238-3.25 1.029-3.72 1.188-.48.158-2.06 1.108-2.3 1.108h-5.22c-.16 0-1.82.87-2.22.87-.39 0-1.5-2.295-1.66-2.533-.16-.237-1.9-1.029-2.53-1.029-.64 0-3.17 1.979-3.72 2.138-.56.158-.64 0-1.43-.159-.79-.158-3.72.317-4.59.317-.87 0-3.72.712-4.04.712-.31 0-1.74 1.662-1.9 1.662-.15 0-1.82-1.266-2.05-1.266-.24 0-1.43.712-1.9.95-.48.237-1.66-.159-1.82-.238-.16-.079-1.67.554-1.98.554-.32 0-1.9-2.691-2.06-2.77-.16-.079-1.9 1.267-2.22 1.346-.31.079-1.74-.95-1.97-.871-.24.079-3.72 2.058-3.96 2.216-.24.159-1.66.079-1.98 0-.32-.079-1.5 1.187-1.74 1.267-.24.079-1.74-.475-2.06-.554-.32-.08-2.3.554-2.3.712 0 .158-1.82 6.886-2.29 7.282-.48.396-4.75 0-5.15 0-.39 0-1.74.712-2.13.87-.4.159-2.14 0-2.38 0-.23 0-1.58.792-1.82.871-.24.079-1.5.158-1.82.158-.32 0-1.74-.712-2.29-.633-.56.079-4.99.079-5.23.079-.23 0-1.82-.712-2.29-.791-.48-.079-4.51.791-5.15.791-.63 0-2.85-.395-3.16-.158-.32.238-3.57 1.187-3.88 1.187h-5.86c-.55 0-2.77-.712-3.32-.712-.56 0-2.3.712-2.46.871-.16.158-.31 0-.87-.159-.55-.158-4.75-.079-5.06 0-.32.079-1.51 1.267-1.98 1.346-.48.079-1.9-.792-2.22-.871-.32-.079-4.27.079-5.3.079-1.03 0-5.94-.316-6.18-.316-.23 0-1.66.87-1.89.791-.24-.079-.4-.791-.56-1.108-.16-.316-1.19-2.374-1.58-2.374-.4 0-1.74 1.266-2.06 1.504-.32.237-1.5.395-1.9.395-.4 0-1.5-.395-2.06-.237-.55.158-3.72.475-4.11.554-.4.079-1.9 2.137-2.06 2.295-.16.159-.79.238-1.58.475-.8.238-9.74 0-10.06 0-.31 0-1.42-.633-1.66-.633s-4.19.317-4.35.396c-.16.079-1.74 2.216-2.06 2.374-.32.158-1.19.079-1.58 0-.4-.079-1.66-.633-2.14-.791-.47-.159-2.29.316-2.85.316-.55 0-3.64-.079-4.35-.316-.71-.238-3.88.316-4.59.237-.72-.079-4.36-1.425-4.75-1.583-.32-.127-3.46.158-4.99.317-.55 0-1.66-.079-1.98-.159-.31-.079-3.64.317-4.03.317-.4 0-3.41-1.504-3.88-1.504-.48 0-2.38.475-2.69.633-.32.159-2.3.08-3.01.08s-1.82-.396-2.22-.475c-.39-.08-2.13.475-2.29.633-.16.158-1.82.079-2.3-.158-.47-.238-3.01-.396-3.24-.396-.24 0-1.51-1.425-1.82-1.742-.32-.316-2.14-2.453-2.46-2.691-.31-.237-3.64 0-3.95 0-.32 0-1.59 1.346-1.98 1.663-.4.316-3.57.949-3.96 1.028-.4.08-1.19-.633-1.51-.633h-2.21c-.56 0-1.82 1.267-2.45 1.425-.64.158-4.75-1.979-5.55-2.137-.79-.158-1.9 2.058-2.37 2.216-.47.158-2.69-.712-3.09-.95-.39-.237-1.9.079-2.37 0-.48-.079-1.9-4.036-2.3-4.195-.39-.158-3.56 3.087-3.87 3.166-.32.08-1.43-1.108-1.9-1.345-.48-.238-1.9.396-2.3.712-.4.317-3.4 4.195-4.35 5.462-.95 1.266-2.77 2.295-3.09 2.612-.32.316-1.74.791-2.85.474-1.11-.316-2.53-1.266-3.01-1.82-.38-.443-1.74-.765-2.37-.871-.56 0-1.19.079-1.9 0s-1.82-1.108-1.9-1.108c-.08 0-2.22-.079-2.38 0-.15.079-1.5 1.108-1.74 1.346-.23.237-1.34.316-1.58.237-.24-.079-1.66-3.482-1.74-3.482-.08 0-4.12-2.85-4.43-2.929-.32-.079-1.51-.158-1.75-.237-.23-.08-2.05-2.375-2.21-2.454-.16-.079-1.82.633-2.22.791-.39.159-1.18 0-1.66 0-.47 0-2.06-1.82-2.22-1.82-.15 0-2.37 2.295-2.53 2.295-.16 0-1.42 3.325-1.5 3.562-.08.238-1.51-1.266-1.74-1.583-.24-.317-.64-.158-1.27.475s-.79-.079-1.58-2.454c-.77-2.3-1.31-2.298-1.85-2.295h-.05c-.56 0-2.3-2.058-2.61-2.454-.32-.395-1.59-.554-2.06-.554-.48 0-1.74-.554-2.06-.712-.32-.158-1.58-6.649-1.66-7.282-.08-.633-1.66-3.245-2.22-4.274-.55-1.029-1.5-.158-1.98 0-.47.158-1.03.079-1.58-.158-.55-.238-1.74 0-2.37-.238-.64-.237-1.98-9.181-2.54-9.419-.55-.237-9.02 0-9.5 0-.47 0-3.95-1.583-4.27-1.583-.32 0-1.98 1.187-2.06 1.187h-1.98c-.16 0-1.9.95-2.05.95-.16 0-5.23-.475-5.47-.475-.23 0-1.82.634-1.97.713-.16.079-1.51.079-1.9.079-.4 0-3.8-1.741-4.2-1.741h-4.91c-.31 0-2.69-.159-2.93-.238-.23-.079-1.02 0-1.97.158-.95.159-3.8-.633-4.04-.633-.24 0-3.56.713-3.96.792-.39.079-5.46-1.504-5.78-1.583-.31-.079-2.45.395-2.69.475-.23.079-1.03 2.216-1.98 2.928-.95.713-4.82.158-5.14.158-.32 0-1.66-3.166-2.93-3.561-1.27-.396-4.67.079-5.14.158-.48.079-5.86.079-6.26.079-.39 0-1.5.792-1.9.95-.39.158-3.48-1.108-4.03-1.187-.56-.079-3.41.237-3.64.237-.24 0-2.06-1.266-2.22-1.345-.16-.08-1.58 1.345-1.9 1.583-.25.19-1.79.606-2.53.791-.24.106-.79.317-1.11.317-.4 0-1.35-1.583-1.74-1.821-.4-.237-2.22-.87-2.46-.87-.19 0-2.71.369-3.95.554-.69.738-2.09 2.248-2.22 2.374-.16.158-3.32.95-3.56.95-.24 0-3.72-1.741-4.28-1.9-.55-.158-4.82.159-5.14.317-.25.127-1.79 1.108-2.53 1.583-.32.053-1.05.127-1.43 0-.47-.158-3.88 0-4.19 0-.32 0-3.72-1.741-3.88-1.741-.16 0-1.82.316-2.06.316s-1.82-5.857-1.9-6.332c-.08-.475-2.22-1.82-2.37-1.82-.16 0-1.82.633-2.06.633s-1.74.079-2.06.237c-.32.159-3.48 2.375-3.8 2.375-.32 0-1.42.317-1.66.317s-1.74-1.029-2.06-1.109c-.31-.079-1.9.713-2.37.792-.48.079-1.74 2.216-1.9 2.454-.16.237-1.35.395-1.59.395-.23 0-1.74-.395-2.13-.395-.4 0-3.48 2.453-3.88 2.453-.4 0-1.82-1.345-2.06-1.345s-1.82 1.741-1.98 1.741c-.16 0-1.74-.396-2.06-.396-.31 0-1.42.396-1.9.396-.47 0-3.56-.633-3.95-.554-.4.079-1.51.554-1.82.871-.32.316-2.14 0-2.46 0-.25 0-1.21 1.688-1.66 2.532-.5-.712-1.53-2.137-1.66-2.137h-2.22c-.39 0-1.5 1.029-1.9 1.029-.39 0-1.82-1.583-2.05-1.741-.24-.158-3.25-.317-3.57-.317-.31 0-.31-.316-.39-.87-.08-.554-1.9-4.433-2.14-4.433-.24 0-3.4.159-3.64 0-.24-.158-1.58-1.978-1.9-2.295-.32-.317-3.88-3.641-4.12-3.641-.23 0-1.18.792-1.74.633-.55-.158-3.32-5.936-3.64-5.936h-4.91c-.55 0-1.18 1.504-1.66 1.504-.47 0-1.5-1.267-2.13-1.504-.64-.237-1.67-.158-1.98-.158-.32 0-1.9 1.424-2.22 1.662-.32.237-1.19 2.691-2.06 3.799-.87 1.108-3.01 2.691-3.32 2.849-.32.159-2.38-1.108-3.56-.712-1.19.396-3.57 0-3.8 0-.24 0-.79 4.274-.87 4.907-.08.634-2.69 3.721-3.01 4.354-.32.633-2.61 1.741-2.85 1.741h-3.96c-.25 0-2.43-1.583-3.48-2.374-.66-.818-2.03-2.47-2.22-2.533-.23-.079-1.98-.633-2.29-.554-.32.079-1.82 1.82-2.3 1.899-.47.079-3.4-.316-3.8-.316-.39 0-1.18.554-1.58.554-.4 0-1.9-.079-2.3 0-.39.079-3.64 2.295-3.95 2.295-.32 0-1.66-.237-1.98 0-.32.238-1.66 3.166-1.9 3.72-.24.554-.32.238-1.03-.554-.71-.791-1.19-.633-1.74-.554-.56.079-1.98-.712-2.77-.95-.79-.237-2.14-.316-2.38-.316-.23 0-1.42 1.82-2.05 1.82-.64 0-2.62-2.216-3.09-2.454-.38-.19-1.85-3.034-2.53-4.432-.61.185-1.87.554-2.06.554-.19 0-1.29-.369-1.82-.554-.66.528-2.03 1.646-2.22 1.9-.24.316-3.56.633-3.96.633-.39 0-1.34-.871-1.82-.95-.47-.079-3.4.95-3.87.95-.48 0-1.51-2.454-2.06-2.85-.56-.395-.72.159-1.82 0-1.11-.158-5.39-9.577-5.62-9.577-.24 0-6.18 2.85-6.41 2.929-.24.079-3.88-1.9-4.12-1.9-.24 0-3.8 2.137-4.19 2.137-.4 0-.8-.554-1.59-.554s-3.56 1.821-3.96 2.216c-.31.317-1.6.132-2.21 0-1.27-.158-3.01-1.345-3.17-1.424-.16-.079-3.64-.238-4.03-.238-.4 0-.56-.475-1.27-.95-.71-.474-2.14-2.928-2.45-3.166-.32-.237-2.06-1.741-2.3-1.741-.24 0-5.78 2.137-5.94 2.137-.15 0-1.74-1.029-1.82-1.108-.08-.079-1.9.158-1.97.079-.08-.079-1.9-2.295-2.06-2.374-.13-.064-2.8.343-4.12.554-.55.237-1.72.712-1.98.712-.31 0-1.58-1.108-1.66-1.345-.08-.238-2.14-3.8-2.22-3.8-.08 0-1.9.475-2.13.475-.24 0-3.33-.791-3.56-.87-.24-.08-1.75-1.663-2.06-1.821-.32-.158-2.22-1.266-2.38-1.187-.16.079-1.9.95-2.29 1.187-.4.238-3.01 2.691-3.49 3.008-.47.316-1.74.87-1.89.87-.16 0-1.75-1.741-1.9-1.82-.16-.079-1.82-.396-1.98-.396-.16 0-1.9.792-2.06.871-.16.079-1.98.079-2.14.079-.16 0-1.82 1.979-1.98 1.979-.16 0-1.5-1.9-1.66-1.979-.16-.079-2.14-.633-2.29-.554-.16.079-1.98 2.691-2.06 2.691-.08 0-3.56.396-3.8.475-.24.079-1.9 1.979-1.98 2.216-.08.238-3.88 2.612-4.04 2.612h-3c-.64 0-2.62-1.029-2.85-.95-.24.08-1.67.95-1.98 1.109-.32.158-1.9-.238-1.98-.159-.06.064-2.82 4.987-4.2 7.44-.5.132-1.56.396-1.82.396-.31 0-3.56-1.266-3.8-1.266-.23 0-1.5.475-1.74.475s-1.98 1.424-2.21 1.503c-.24.08-1.59-.395-1.75-.395-.15 0-1.5-1.742-1.66-1.979-.16-.238-2.61-2.058-2.77-1.979-.16.079-1.58 2.137-1.66 2.216-.08.08-1.9 1.109-2.14 1.109-.23 0-1.66-1.029-1.82-1.188-.16-.158-1.58.554-1.98.554-.39 0-.63-1.583-1.02-2.216-.4-.633-2.78-3.957-2.93-4.116-.16-.158-1.59-.158-1.98-.237-.4-.079-5.94-5.699-6.1-5.699-.16 0-1.74 1.82-2.05 1.979-.32.158-3.57-2.771-3.96-2.691-.4.079-4.12 3.957-4.2 4.115-.08.159-1.5 3.721-1.74 3.721s-1.34-1.742-1.5-1.979c-.16-.238-2.22-1.583-2.38-1.662-.16-.08-1.66.949-1.9.949-.23 0-1.66-4.195-1.82-4.432-.16-.237-4.03-3.878-4.19-3.878-.16 0-1.82 2.137-2.06 2.374-.24.238-1.58-.95-1.82-1.029-.24-.079-1.74 1.662-1.9 1.741-.13.064-.53-.976-.71-1.503-.69-1.742-2.08-5.256-2.14-5.383-.08-.158-2.85-5.857-2.93-6.015-.08-.158-2.06-3.245-2.29-3.245-.24 0-1.82 1.741-1.98 1.82-.16.079-2.06-.554-2.22-.475-.16.08-3.56 4.116-3.72 4.274-.16.159-1.74 0-1.98 0-.23 0-2.21.713-2.29.792-.07.067-1.31 2.601-1.75 3.496l-.15.303c-.08.159-1.35 1.583-1.51 1.662-.15.08-1.74-1.899-1.97-2.058-.24-.158-1.43-.158-2.06-.554-.64-.395-3.25-4.115-3.33-4.432-.08-.317-2.69-5.145-2.85-5.066-.15.079-2.05 4.354-2.21 4.512-.13.127-1.85.528-2.69.712-.32.053-.99.174-1.11.238-.16.079-1.9 2.453-2.14 2.691-.24.237-1.34.554-1.5.554-.16 0-2.14 2.849-2.22 3.087-.08.237-1.82 1.266-1.98 1.424-.16.159-1.74 0-1.9 0-.16 0-1.66 1.425-1.9 1.425-.23 0-1.74-1.583-1.98-1.583-.23 0-1.82 1.346-2.05 1.662-.24.317-1.67.159-1.9.159-.24 0-1.74 1.108-2.14 1.345-.4.238-1.66 3.483-1.9 3.483s-3.4-6.57-3.48-6.728c-.08-.158-1.98-.633-2.22-.712-.24-.079-1.66.87-1.9.949-.24.08-1.66-3.086-2.06-3.64-.39-.555-1.66-1.267-1.82-1.663-.16-.395-3.32-4.115-3.56-4.353-.24-.237-2.29-1.899-2.69-1.979-.4-.079-1.35 1.188-1.74 1.425-.4.238-1.66 1.108-1.98 1.108-.32 0-1.82-1.029-2.14-1.108-.31-.079-3.64 2.058-4.03 2.058-.4 0-1.43-1.108-1.74-1.346-.32-.237-2.93-4.036-3.65-4.907-.71-.871-.95-.079-1.02 0-.08.079-1.43 3.008-1.59 3.245-.16.238-1.66.159-1.98.238-.31.079-1.66 2.612-1.82 2.691-.15.079-1.5-4.512-1.58-4.828-.08-.317-2.06-6.886-2.22-7.045-.15-.158-1.82.633-2.05.633-.24 0-.95-.87-1.59-1.583-.63-.712-1.03-.158-1.1 0-.08.159-1.43 1.425-1.59 1.425-.16 0-1.5.158-1.82 0-.32-.158-5.38-5.936-5.54-6.015-.16-.079-1.9-4.67-1.98-4.908-.08-.237-2.29-1.503-2.45-1.503-.16 0-1.98 3.086-2.06 3.245-.08.158-1.9 4.274-1.98 4.511-.08.238-1.9-.237-2.06-.237-.15 0-1.74 3.799-1.82 4.116-.08.316-1.42 1.108-1.74 1.266-.31.158-3.56 1.346-3.8 1.346-.23 0-1.98-5.224-2.13-5.383-.16-.158-1.59.554-1.82.554-.24 0-1.82-4.432-2.38-5.382-.54-.931-.86-.721-1.09-.563l-.02.009c-.23.158-2.85 8.153-3 8.311-.16.158-1.27 1.029-1.59 1.029-.31 0-2.06-4.116-2.13-4.037-.08.079-1.59 2.691-1.83 2.929-.23.237-1.58-8.469-1.66-8.707-.08-.237-1.9-1.979-2.06-2.137-.15-.158-1.9-5.303-1.97-5.619-.08-.317-2.85-2.692-3.65-3.562-.76-.847-1.09-.197-1.18-.015v.015c-.08.158-.79 2.137-1.19 2.77l-.16.25c-.56.902-1.93 3.106-2.21 3.391-.32.317-1.75 3.957-2.06 4.116-.32.158-6.48-2.216-6.72-2.216-.24 0-1.9 1.266-2.14 1.424-.24.159-3.63 2.216-3.87 2.929-.24.712-1.03 4.67-1.19 4.749-.16.079-2.61-4.512-3.24-5.62-.64-1.108-1.03 0-1.11.158-.08.159-1.35 2.296-1.5 2.612-.16.317-.32 1.029-.48 1.742-.16.712-1.5 7.598-1.58 7.915-.08.316-1.98 4.195-2.06 4.353-.08.158-1.35 1.187-1.58 1.266-.24.08-1.59.159-1.82.238-.24.079-2.3 1.029-2.38 1.108-.08.079-1.74 2.533-1.82 2.691-.08.158-1.58 1.346-1.9 1.346-.31 0-1.19-1.267-1.58-1.742-.32-.38-.77-.211-.95-.079-.58.66-1.79 2.026-1.98 2.216-.24.238-1.58.95-1.74 1.109-.16.158-3.72 4.115-3.8 4.274-.08.158-1.58 1.187-1.82 1.266-.24.079-2.77 0-3.17 0-.39 0-3.8.238-4.03.158-.24-.079-1.11.08-1.27.238-.16.158-2.3 1.187-2.61 1.266-.32.079-.87.159-1.82-.237-.95-.396-1.58.079-1.66.237-.08.159-2.23 4.195-2.47 4.354-.23.158-.64 1.741-.79 1.741-.16 0-3.09-2.612-3.41-2.85-.32-.237-3.56-1.741-3.96-1.82-.39-.079-2.29.871-2.53.95-.24.079-3.64-1.346-3.8-1.346-.16 0-1.42.396-1.82.554-.39.159-1.9.238-2.06.238-.15 0-1.42.475-1.58.633-.16.158-3.01 2.216-3.48 2.533-.48.316-6.57 2.374-6.89 2.453-.31.08-3.48-.237-3.8-.237-.31 0-2.05.871-2.45.95-.4.079-3.64-1.267-3.8-1.267-.16 0-1.5.079-1.66.079-.13 0-1.64-.527-2.38-.791l-1.9 1.346-1.82 2.849c-.52-.818-1.63-2.454-1.82-2.454h-3.56c-.39 0-2.06-.395-2.37-.395-.32 0-2.3.395-2.54.395-.23 0-.39 1.267-.95 3.166-.55 1.9-2.69 6.491-2.77 6.649-.08.158-1.97-.079-2.13 0-.16.079-5.47 5.382-5.7 5.382-.24 0-1.35-.079-1.74 0-.4.079-1.98 1.029-2.14 1.267-.16.237-1.9-.238-2.22-.238-.31 0-3.64-1.662-3.8-1.662-.15 0-1.66 1.108-2.05 1.266-.4.159-1.9.317-2.06.396-.16.079-1.43 1.346-1.66 1.504-.24.158-1.98-.475-2.14-.396-.16.079-1.19 1.187-1.66 1.504-.48.317-5.78 3.799-6.02 4.037-.24.237-1.82-.238-2.22-.238-.39 0-1.42.95-1.82 1.029-.39.079-3.48-3.324-3.72-3.482-.23-.159-2.13-.238-2.53-.238-.39 0-1.82.95-2.06 1.187-.23.238-1.5 3.008-1.74 3.325-.24.316-1.66-.792-1.98-.792-.31 0-1.66 3.087-1.98 3.087-.31 0-6.01-9.815-6.33-9.815-.31 0-2.77 1.188-3.16 1.267-.4.079-1.82-1.029-2.14-1.108-.32-.079-1.58-2.454-1.9-2.85-.25-.316-1-1.134-1.35-1.503-1 .211-3.02.649-3.08.712-.08.079-1.74 3.087-1.82 3.166-.08.079-.95-.871-1.35-1.029-.39-.158-1.98-2.533-2.21-2.77-.24-.238-3.96-2.454-4.28-2.454-.32 0-2.77 1.9-3.24 2.137-.48.238-4.59 3.166-4.75 3.166-.16 0-1.59-.475-1.9-.475-.32 0-1.51.475-1.82.475-.32 0-1.98-.554-2.22-.554-.24 0-1.9 1.979-2.14 2.137-.23.158-1.34.238-1.58.317-.24.079-1.42 1.424-1.74 1.978-.25.444-.63.343-.79.238-1.03-.528-3.14-1.583-3.33-1.583-.23 0-.47-.158-1.18 0-.72.158-1.03-.317-1.19-.396-.16-.079-2.06-1.504-3.01-2.137-.76-.506-1-.369-1.03-.237-.58.554-1.77 1.693-1.9 1.82-.16.158-2.06-.237-2.93-.158-.87.079-2.85 1.741-3 1.979-.16.237-3.88 6.332-4.04 6.49-.16.158-.87.712-1.5.95-.64.237-1.9.633-2.14.633-.24 0-1.9-.633-2.14-.633-.24 0-1.11.791-1.34 1.029-.24.237-4.04 1.82-4.44 1.899-.39.079-1.9 3.483-2.21 3.879-.32.395-3.49 1.345-3.64 1.345-.16 0-1.19-.475-1.66-.633-.48-.158-1.11-.237-1.35-.317-.24-.079-2.77.95-3.01.95-.24 0-3.88-.633-4.11-.633-.24 0-1.59 1.82-1.67 1.979-.08.158-1.82 1.029-2.05 1.029-.24 0-3.57-2.533-3.8-2.533-.24 0-3.88-.475-4.2-.475-.32 0-2.85 1.266-3.64 1.425-.79.158-3.72 3.403-4.19 3.799-.48.396-1.19.554-1.43.554s-.47-.079-1.03.475c-.55.554-3.24 3.482-3.64 3.562-.39.079-3.01-3.087-3.32-3.562-.26-.38-1.85-1.161-2.62-1.504-.23 0-1.42.396-1.74.554-.31.158-1.74.079-1.98 0-.23-.079-.87-1.108-1.26-1.583-.32-.38-2.09-2.322-2.93-3.245-.16 0-1.66.712-1.82.712-.16 0-1.58-.475-1.82-.554-.24-.079-1.98-1.345-2.3-1.345-.31 0-1.42.395-1.66.554-.24.158-1.19-.396-1.74-.554-.55-.159-1.03.316-1.19.395-.16.08-3.08 3.166-3.4 3.166-.32 0-1.58-.237-1.74-.237-.16 0-3.72-2.295-4.04-2.295-.32 0-2.14.395-2.29.554-.16.158-1.59 2.691-1.82 2.77-.24.079-1.51-.792-1.67-.792-.16 0-3.56-4.432-3.88-4.828-.31-.396-2.13-1.345-2.29-1.424-.16-.08-1.9.791-2.06.87-.16.079-1.34-.554-1.74-.633-.4-.079-2.22 1.108-2.37 1.187-.16.079-1.67 2.058-1.98 2.296-.32.237-3.49-.159-3.72-.08-.24.08-1.59 1.742-1.74 1.9-.16.158-1.98 2.375-2.14 2.454-.16.079-.24-.95-.32-1.267-.08-.316-1.34-4.907-1.42-5.065-.08-.159-1.27-.713-1.51-.792-.23-.079-1.74-1.82-2.05-2.058-.32-.237-2.3-3.166-2.7-3.324-.39-.158-3.72 1.9-4.03 1.9-.32 0-1.74 1.662-1.98 1.662s-2.53-1.425-3.09-1.662c-.55-.238-1.03-.08-1.11.237-.08.317-1.82 4.986-1.9 5.145-.08.158-1.74 1.583-1.97 1.82-.24.238-1.43 0-1.75 0-.31 0-1.82 2.058-2.13 2.296-.32.237-1.59.554-1.82.633-.24.079-1.98 3.245-2.06 3.403-.08.159-1.27-.316-1.66-.395-.4-.08-4.12 1.82-4.2 1.899-.08.079-1.58 1.9-1.74 1.9-.15 0-1.42-5.192-1.69-6.298l-.05-.193c-.08-.316-1.35-2.849-1.51-3.245-.15-.396-.79-1.424-1.02-1.266-.24.158-1.19 2.533-1.35 2.928-.16.396-2.69 5.699-2.77 5.937-.08.237-1.42 1.029-1.74 1.187-.32.158-1.82 2.137-2.06 2.454-.24.316-1.58 1.108-2.22 1.424-.63.317-3.4 3.166-3.64 3.483-.23.317-1.66.712-1.9.712-.23 0-1.82 1.504-2.05 1.742-.24.237-1.51-.238-1.67-.238-.15 0-1.97-1.108-2.21-1.108s-1.35 1.029-1.59 1.346c-.23.316-.47.316-.63.316-.16 0-2.37-1.662-3.08-2.295-.72-.633-1.03-.079-1.19 0-.16.079-1.59 1.504-1.82 1.741-.24.238-1.43.475-1.66.554-.24.079-1.9 2.137-2.14 2.533-.24.396-1.35.95-1.74 1.187-.4.238-2.06.079-2.85 0s-2.93.238-3.17.238c-.24 0-1.82 1.583-2.06 1.741-.23.158-2.45 1.029-2.69 1.108-.23.079-3.01 2.058-3.16 2.137-.16.079-1.75.079-1.98.079-.24 0-3.41.079-3.72.396-.32.317-5.46 1.425-5.78 1.583-.32.158-5.62.079-6.09.079-.48 0-3.33.713-3.96.792-.64.079-1.82-.475-1.98-.475-.16 0-1.9.87-2.38 1.029-.47.158-6.25 0-6.88 0-.64 0-2.14-.792-2.53-.792-.4 0-3.96.079-4.28.317-.32.237-4.91.712-5.46.554-.55-.158-2.22.237-2.69.554-.48.317-1.51.633-2.06.633h-3.56c-.24 0-1.5.95-1.82 1.029-.32.079-1.27-.079-1.51-.079-.23 0-3.72 1.187-4.19 1.346-.48.158-3.4-.159-3.96-.159-.55 0-5.93 2.533-6.25 2.533-.32 0-2.77-1.979-3.17-2.216-.39-.238-4.19-1.187-4.59-1.267-.39-.079-.95.396-1.34.634-.4.237-2.38.949-2.77 1.029-.4.079-1.43-.317-1.74-.475-.32-.159-3.72-3.958-3.96-4.274-.19-.254-1.88-.739-2.69-.95-1.09.396-3.31 1.203-3.57 1.266-.31.079-3.48 3.641-3.79 3.641-.32 0-1.67-1.979-1.98-1.979-.32 0-1.74 1.504-1.98 1.504s-1.43-.87-1.58-.95c-.16-.079-1.67-3.086-1.9-3.561-.24-.475-1.98-1.504-2.22-1.583-.24-.08-1.35.475-1.82.633-.48.158-1.03-.238-1.66-.396-.64-.158-2.38-.079-2.69 0-.32.079-3.49 3.562-3.72 3.799a2.93 2.93 0 01-1.03.713c-.56.237-3.09.949-3.41.949-.31 0-1.42 1.267-2.13 1.267-.72 0-3.25-1.267-3.64-1.267-.4 0-1.83 2.137-2.14 2.692-.32.554-3.64 2.453-3.88 2.612-.24.158-1.82 2.691-1.9 2.928-.08.238-1.82 0-2.14 0-.31 0-.55-.237-1.18-.396-.64-.158-1.43.396-1.67.396-.23 0-4.43 2.77-4.59 2.929-.16.158-1.82.079-2.05.158-.24.079-1.75.475-2.06.554-.32.079-3.8-.396-4.04-.396-.24 0-1.58 1.583-1.74 1.583-.16 0-1.43-2.058-1.43-2.216 0-.158-2.37-2.295-2.53-2.295-.16 0-1.9.395-2.14.475-.23.079-1.97 1.424-2.13 1.424-.13 0-4.01.37-5.94.554-1.11.713-3.35 2.153-3.48 2.217-.16.079-4.12 3.561-4.28 3.561h-6.01c-.32 0-3.48 1.504-3.72 1.583-.24.079-3.72-1.583-3.96-1.583-.24 0-4.04-.079-4.27 0-.24.079-1.66 1.425-1.82 1.583-.16.159-1.11-.158-1.43-.158-.31 0-4.27 1.108-4.59 1.187-.32.079-1.82 3.008-1.98 3.166-.16.159-1.42.554-1.74.633-.32.08-1.98-.633-2.29-.633-.32 0-3.33 2.454-3.57 2.533-.23.079-3.48-6.807-3.87-7.282-.4-.475-1.9.554-2.14.633-.24.08-1.82-1.503-2.14-1.503-.31 0-1.66 2.532-1.9 2.612-.24.079-1.82-3.246-1.82-3.562 0-.317-1.66-6.253-1.74-6.728-.08-.475-1.42-1.741-1.82-2.295-.4-.554-1.03 0-1.03.158s-1.5 3.087-1.74 3.403c-.24.317-1.43-.316-2.06.475-.63.792-3.32 3.245-3.56 3.404-.24.158-1.66.237-1.82.237-.16 0-1.74-.95-2.06-1.029-.32-.079-1.98.871-2.45 1.029-.48.159-1.51 1.742-1.74 2.137-.24.396-1.35.871-1.67.95-.31.079-1.9 1.504-2.13 1.821-.24.316-1.35-1.188-1.82-1.425-.48-.238-1.98 0-2.3 0-.32 0-1.42 1.662-1.74 2.216-.32.554-4.04 4.67-4.27 4.67h-5.54c-.4 0-2.22.554-2.46.712-.24.159-5.46 0-6.25 0s-3.09.554-3.25.713c-.15.158-1.42-.475-1.82-.554-.39-.08-3.8.554-4.03.554-.24 0-5.07.791-5.47.712-.39-.079-1.42-.317-1.81-.554-.4-.238-4.6-.317-4.83-.317-.24 0-3.49 1.979-4.36 2.217-.87.237-5.3.079-6.09 0-.79-.08-6.17-.396-7.12-.555-.95-.158-3.88.396-4.2.475-.32.08-3.64-.87-3.8-.87-.16 0-3.88.158-4.19.158-.32 0-2.06 1.187-2.38 1.504-.25.253-3.48 1.319-5.06 1.82-.56 0-1.75-1.108-2.54-1.345-.79-.238-3.16-.317-3.4-.317-.24 0-1.66-1.029-1.98-1.029-.32 0-1.5 1.425-2.14 1.583-.63.159-3.4 0-3.87 0-.48 0-3.49.713-3.65.713-.15 0-1.9-2.217-2.13-2.296-.24-.079-3.17.159-3.72.238-.56.079-2.06 1.899-2.38 2.058-.31.158-3.16-.713-3.72-.713-.55 0-2.21 1.742-2.45 1.979-.24.237-1.5 0-1.98.317-.47.316-2.37 1.978-2.77 2.058-.4.079-1.58.633-2.22.633-.63 0-2.37.158-2.77 0-.39-.159-2.13.95-2.85 1.345-.71.396-2.13.713-3.56.634-1.42-.08-2.29-.634-2.69-.634h-2.61c-.24 0-1.9-.633-2.37-.633-.48 0-2.85.396-3.73.633-.87.238-3.48 0-4.03 0-.56 0-3.56 2.137-3.88 2.137-.32 0-1.35-.395-1.98-.475-.63-.079-2.77.317-3.48.475-.71.159-8.95.634-9.9.634-.94 0-1.66-.396-2.05-.475-.4-.08-1.51.475-1.67.712-.15.237-4.43 0-4.9 0-.48 0-.95-.237-1.43-.237-.47 0-2.06.316-2.53.395-.48.079-1.66-.395-2.38-.395-.71 0-2.53.554-2.77.712-.23.158-3.48.396-3.95.396-.48 0-1.82-1.188-2.06-1.346-.24-.158-10.37.079-10.92 0-.56-.079-4.59.475-4.99.475-.4 0-1.5-1.029-1.98-1.425-.47-.395-5.06 0-5.62 0-.55 0-.95.079-1.26.396-.32.317-2.85.871-3.33 1.029-.47.158-3.64.475-3.96.475-.31 0-1.66 2.216-1.97 2.216-.32 0-1.43.396-2.7.396-1.26 0-4.67-.396-5.22-.396-.55 0-3.01.396-3.72.396-.71 0-3.09-.396-3.88-.396s-2.14.396-2.37.396c-.19 0-2.56-.633-3.72-.95-.85.106-2.71.301-3.41.238-.87-.08-3.56.712-4.51.712-.95 0-4.51.079-5.14 0-.64-.079-2.22.633-2.77.633-.56 0-3.33-1.979-3.72-2.137-.32-.127-1.77.053-2.46.158-.23 0-1.18-.158-1.66-.158-.47 0-3.96.158-4.51.158-.55 0-3.17-.158-3.56-.158-.4 0-1.59 1.187-1.9 1.425-.32.237-3.72.237-3.96.237-.24 0-1.66 1.9-1.82 1.979-.16.079-1.58-3.324-1.74-3.641-.16-.317-1.66-2.137-1.82-2.295-.16-.159-.56-.475-.71-.554-.16-.08-3.17-3.246-3.57-3.483-.39-.237-7.59.475-7.99.475-.4 0-2.77-.396-3.4-.475-.64-.079-2.14.396-2.54.475-.39.079-1.34-.633-1.66-.633-.32 0-2.61-.475-3.09-.713-.47-.237-1.74-.316-2.21-.316-.48 0-2.61-.475-3.09-.475-.47 0-2.77.712-3.32.87-.56.159-1.35.159-1.9.159-.56 0-1.9.633-2.38.712-.47.079-1.82-.475-2.29-.475-.48 0-3.41 1.187-3.72 1.346-.32.158-1.35.079-1.9.237-.56.159-1.51-.396-1.82-.396-.32 0-3.72.713-4.04.713-.32 0-1.82-2.77-2.06-2.929-.23-.158-3.4.475-3.72.554-.31.079-1.18-.395-1.82-.395-.63 0-2.29-1.346-2.53-1.425-.24-.079-2.53 1.425-3.09 1.899-.55.475-2.53 2.929-2.93 2.929-.39 0-1.18-1.187-1.74-1.187-.55 0-1.66.791-1.98.95-.31.158-1.58 0-1.97-.159-.4-.158-1.43-3.007-2.06-3.007-.64 0-2.14 1.662-2.22 1.741-.08.079-1.03 2.612-1.19 3.166-.15.554-.47 1.583-.71 1.82-.24.238-1.34-4.274-1.42-4.353-.08-.079-1.51-2.058-1.82-2.533-.32-.475-.87-1.82-.95-2.216-.08-.396-1.27-4.512-1.35-4.67-.08-.158-1.27-.475-1.82-.633-.55-.158-1.35.158-1.66.317-.32.158-1.74.237-2.22.158-.47-.079-2.45.791-2.69.871-.24.079-1.98 4.986-2.14 5.144-.15.159-3.56-.158-3.8-.158-.23 0-.94 1.979-1.34 2.849-.4.871-2.06 5.145-2.14 5.304-.08.158-.31 1.424-1.03 1.899-.71.475-4.11.238-4.83.317-.71.079-.79 0-1.5-.317-.71-.316-2.14-.237-2.45-.237-.32 0-1.66.712-1.98.87-.32.159-1.82 0-2.22 0-.31 0-.87.475-1.11.713-1 .897-3.03 2.738-3.16 2.928-.16.238-1.58.159-2.06.159h-3.24c-.32 0-2.22.791-2.54.949-.31.159-.87.95-1.5 1.9s-4.28 4.591-4.51 4.828c-.24.238-3.49.317-3.8.317-.32 0-1.59.633-1.82.712-.24.079-4.2-.475-4.91-.237-.71.237-1.35.079-1.82-.238-.48-.316-2.45-.87-3.09-.87-.63 0-5.22-.317-5.85-.317-.64 0-5.47.554-6.18.554s-4.91-.554-5.22-.712c-.32-.159-4.28.158-4.75.158-.48 0-3.64 1.266-3.88 1.266-.24 0-5.22.08-5.78 0-.55-.079-1.66-.475-2.77-.633-2.34-.334-3.99.329-5.3 1.425-.48.396-4.44 2.454-4.75 2.454-.32 0-3.41-.555-3.88-.634-.47-.079-1.27.396-2.06.634-.79.237-2.93.712-3.32.791-.4.079-2.61-.237-2.85-.237-.24 0-1.27.554-1.58.554-.32 0-1.67.079-2.14.158-5.29.881-.57.158-5.99.158-.25 0-1.48.528-2.06.792-.45-.027-1.45-.064-1.9 0-.55.079-1.58.554-1.9.554-.31 0-3.64-1.9-3.88-1.9-.23 0-3 .554-3.72.633-.71.08-3.75-1.604-4.15-1.604-.39 0-1.58 1.187-1.98 1.346-.39.158-1.18-.079-1.34-.159-.16-.079-.79-.158-1.19 0-.4.159-1.5.317-1.74.317s-3.17-1.662-3.56-1.9c-.4-.237-.79-.079-1.27.08-.47.158-1.42.316-2.14.316-.71 0-2.05.396-2.77.633-.71.238-3.24 0-3.56 0-.31 0-1.98-1.029-2.29-1.108-.32-.079-1.9.871-2.46 1.108-.55.238-3.48.079-3.72.079-.23 0-3.56 1.9-3.72 1.979-.16.079-1.66.079-1.82.079-.16 0-1.82-3.007-1.9-3.086-.08-.08-1.82-.159-1.98-.159-.15 0-1.82-1.979-1.98-2.216-.15-.237-3.87-.712-4.19-.791-.32-.08-1.74.949-1.98 1.028-.24.08-1.9-.474-2.14-.395-.23.079-1.9 1.583-1.97 1.662-.08.079-2.3.237-2.77.237-.48 0-1.11.079-1.35-.079s-3.4-2.533-3.72-2.691c-.32-.158-2.14-.079-2.38 0-.23.079-3.48 3.324-3.64 3.483-.15.158-1.42 0-1.82 0-.39 0-2.13.87-2.21.949-.08.08-1.74 2.058-1.9 2.058h-1.9c-.24 0-1.82.554-1.98.554-.16 0-1.9 1.9-1.98 2.058-.08.159-1.74 1.267-2.77 1.742-1.03.475-1.35.316-1.82.316-.48 0-1.58-.079-1.74 0-.16.079-1.51 1.108-1.74 1.108-.24 0-1.51-.712-1.74-.712h-3.8c-.08 0-1.19-1.266-1.67-1.82-.47-.554-.87-.08-1.1.079-.24.158-3.17 2.453-3.33 2.453-.16 0-1.74-.475-1.98-.475-.23 0-1.9.475-1.98.475-.07 0-1.58-1.108-1.74-1.187-.16-.079-1.5 0-1.82 0-.31 0-1.98.554-2.13.633-.16.079-1.19-.791-1.35-1.029-.16-.237-2.53-2.612-2.77-2.612-.24 0-1.66.159-1.98.159-.32 0-3.88-.475-4.04-.554-.15-.079-1.82 1.504-1.97 1.504-.16 0-1.67-.634-1.82-.713-.16-.079-1.27-2.612-1.75-3.482-.47-.871-.79-.159-.87 0-.08.158-1.58 3.086-1.74 3.324-.16.237-1.58 1.82-1.74 1.899-.16.08-1.5.238-1.9.238-.39 0-1.74-.317-2.06-.317-.31 0-.55.396-.79.713-.24.316-1.11 1.345-1.19 1.266-.07-.079-.71-2.374-.95-3.087-.23-.712-1.13-6.094-1.29-6.569-.16-.475-.55-1.188-.79-1.188s-1.66.396-1.74.238c-.08-.158-.87-1.425-1.27-2.137s-.63-1.187-.87-1.187-3.56.237-3.8.237c-.24 0-.55-.237-.87-.396-.32-.158-2.85-1.187-3.25-1.187-.39 0-2.21 1.266-2.29 1.346-.08.079-1.74 3.007-1.82 3.086-.08.08-1.19-.237-1.51-.237-.31 0-4.03 13.475-4.27 13.475-.24 0-1.42-.475-1.74-.554-.32-.079-1.9 0-2.22.079-.31.079-1.66 1.187-1.9 1.346-.23.158-1.82-.634-1.98-.634-.15 0-1.82.554-2.05.634-.24.079-1.82.237-2.06.237s-1.66 1.029-1.82 1.029c-.16 0-1.58-1.662-1.66-1.741-.08-.079-2.06-4.67-2.06-4.908 0-.237-2.3 0-2.46 0-.15 0-1.89 2.454-1.97 2.533-.08.079-3.41.633-3.49.633-.06 0-1.55-2.321-2.29-3.482-.58-.554-1.81-1.662-2.06-1.662-.32 0-3.56 1.503-3.88 1.662-.32.158-3.8-.396-4.11-.317-.32.079-1.82 2.691-1.98 3.008-.16.316-3.41 1.583-3.56 1.583-.16 0-2.22-.079-2.46 0-.24.079-.95 1.741-1.26 2.137-.32.396-1.75-.475-1.9-.396-.16.079-2.22 4.116-2.85 4.828-.64.713-2.77.713-3.33.713-.44 0-.66.263-.71.395-1.13 1.874-3.45 5.652-3.64 5.778-.24.159-1.74-.316-1.9-.316-.16 0-.79.316-1.27.791-.44.443-.95-.077-1.28-.406l-.06-.069c-.32-.316-2.3-2.295-2.77-2.612-.48-.316-.72-.079-.79 0-.08.08-1.83 2.454-1.98 2.612-.16.159-1.35.95-1.59 1.029-.23.08-1.82.159-2.21.159-.4 0-1.74 1.978-1.9 2.058-.16.079-2.06 3.72-2.22 3.957-.16.238-2.01 0-2.32 0-.32 0-.79-.158-1.19-.317-.4-.158-2.93-.158-3.17-.158-.23 0-.79.475-.95.475-.15 0-.79.396-.87.396-.06 0-1.13-1.319-1.66-1.979-.47-.158-1.5-.491-1.82-.554-.4-.079-2.45-.158-2.61-.158-.16 0-.32.395-.4.554-.08.158-1.42 1.741-1.66 1.741s-.87-.554-1.03-.712c-.16-.159-2.37-1.346-2.53-1.346h-2.22c-.23 0-2.21 1.425-2.69 1.9-.47.475-.95.95-1.03.95-.08 0-.79-2.771-.79-3.404s-.87-4.907-.87-5.145c0-.237-.95-.791-1.11-1.029-.16-.237-2.85-2.295-3.08-2.453-.24-.159-1.43-.159-1.9-.238-.48-.079-.95.238-1.59 1.267-.63 1.029-.87.079-.95 0-.08-.079-.95-2.691-1.18-3.404-.24-.712-1.9-8.073-2.14-8.865-.24-.791-.32-.791-.56-.791-.23 0-.47 1.187-.47 1.345 0 .159-1.35 8.47-1.35 8.707 0 .19-.58 2.929-.87 4.274-.44 2.137-1.36 6.459-1.42 6.649-.06.19-1.29 2.19-1.9 3.166-.29-.132-.93-.443-1.19-.633-.31-.238-2.37-.475-2.61-.475-.24 0-1.74 2.216-2.06 2.691-.31.475-4.06 1.583-5.08 2.453-1.03.871-2.7 2.217-2.85 2.217-.16 0-1.75-.871-1.98-.871-.24 0-1.19 1.187-1.66 1.504-.38.253-1.64.686-2.22.87-1.27.528-3.83 1.583-3.96 1.583-.16 0-27.06 2-27.37 2.317-.32.317-1.51.554-1.67.554-.15 0-3.48-.871-3.87-.871-.4 0-1.43 1.109-2.06 1.504-.63.396-4.91 2.137-5.7 2.454-.79.317-3.56 0-3.96 0-.39 0-1.66.396-2.45.475-.79.079-3.8.079-4.51 0-.72-.079-2.93.237-3.17.317-.24.079-1.5.712-1.74.712h-1.9c-.71 0-3.4.237-4.75.396-1.34.158-4.35-.08-4.91-.159-.55-.079-3.16.554-3.4.713-.24.158-3.64-.159-4.2-.159-.55 0-4.03.871-4.27.871-.24 0-3.4.475-3.72.554-.32.079-.95-.079-1.19-.158-.23-.079-2.13-.633-3.16-.713-1.03-.079-4.59.238-4.99.475-.39.238-1.74.079-2.29-.079-.56-.158-2.22.317-2.93.317-.72 0-2.54-1.267-3.09-1.742-.44-.379-1.56-.527-2.06-.554h-.79c-.47 0-1.5.317-1.9.317-.39 0-3.64-.791-3.88-.871-.23-.079-1.74.871-2.21.871h-1.74c-.32 0-1.9 1.504-2.06 1.662-.16.158-1.43.713-1.82.713-.4 0-3.17.237-3.64.237-.48 0-1.98-.237-2.3-.237-.32 0-3.32.237-3.56.237-.19 0-1.56-.369-2.22-.554-.66.211-2.01.665-2.13.791-.16.159-3.8.554-4.04.554-.24 0-1.43 1.504-1.66 1.979-.24.475-.48.554-.79.317-.32-.238-3.01-3.087-3.25-3.245-.24-.159-1.5-.238-1.82-.238-.32 0-1.27-.712-1.98-.712s-.32-.238-2.14.316c-1.82.555-1.82-.237-2.05-.316-.24-.079-.56-1.9-.72-2.295-.15-.396-1.03-2.612-1.1-2.929-.08-.317-3.25-.871-3.65-.792-.39.08-1.74-1.266-2.21-1.583-.48-.316-2.53-.158-3.33 0-.79.159-2.61-.633-3.08-.712-.48-.079-5.38 1.187-5.62 1.266-.24.08-1.9-2.77-2.14-2.928-.24-.158-2.45-1.108-2.93-1.029-.47.079-2.29-.792-3.64-1.029-1.34-.237-4.91.871-5.22.95-.32.079-4.67-1.583-5.38-1.741-.72-.159-4.6-1.742-4.99-1.742-.4 0-1.58.95-1.98 1.029-.4.079-3.01.396-3.56.475-.53.076-1.56 1.016-2.41 1.79l-.12.11c-.88.791-2.46.87-3.17.87s-1.82-.475-2.38-.475c-.55 0-3.32 1.109-3.95 1.109-.64 0-1.67-.634-2.14-.634-.47 0-1.5.079-1.98-.237-.47-.317-2.37-1.741-3.01-2.533-.63-.791-.63-.475-1.34-.396-.71.079-2.38-.395-2.77-.554-.4-.158-1.03-.87-1.27-1.424-.24-.554-1.19-1.267-1.5-1.267-.29 0-1.12 1.663-1.43 2.306l-.08.148c-.23.475-4.03 5.303-4.27 5.54-.24.238-2.85.475-3.4.554-.56.08-1.82-.633-2.3-.791-.47-.158-.63.158-1.82 1.425-1.19 1.266-3.72 2.058-4.27 2.137-.56.079-5.54-1.583-5.94-1.583-.4 0-1.82 2.137-2.37 2.532-.56.396-5.15 2.138-6.5 2.138-1.34 0-3.87-.475-4.74-.713-.87-.237-3.72 0-4.83.238-1.11.237-1.82.237-2.38-.238-.55-.475-.87-.475-1.74-.475s-2.77-.554-3.24-.554c-.38 0-.95.844-1.19 1.267-.85.818-2.68 2.453-3.25 2.453-.65 0-2.46.61-3.11.826l-.13.045c-.48.158-7.44.158-8.07.158-.64 0-1.27.792-2.22 1.108-.95.317-3.64 0-4.12 0-.47 0-2.29.317-3.16 0-.87-.316-3.41.396-4.2.317-.79-.079-3.16-1.504-3.64-1.741-.47-.238-2.21-.95-3.88-1.188-1.66-.237-5.93 0-6.25 0-.32 0-1.9-.395-3.72-.791-1.82-.396-4.51.554-5.62 1.029-1.11.475-4.75.791-6.17 0-1.14-.633-4.65-.581-6.26-.475-.37.026-2.24-1.219-3.64-1.029-1.74.237-8.7 0-9.42 0-.71 0-2.13.237-2.92 1.029-.8.791-1.74 1.345-2.46 1.108-.71-.237-2.93-.396-3.24-.396-.32 0-2.3-1.266-2.54-1.266-.23 0-1.66.079-2.29 0-.63-.079-2.45.95-2.61 1.266-.16.317-2.22-.158-2.93 0-.71.159-3.64 1.742-4.28 2.137-.63.396-2.21 0-2.77 0-.55 0-4.03 1.583-4.43 1.583-.39 0-1.34-1.583-1.82-1.978-.47-.396-5.38-1.663-6.81-1.821-1.42-.158-2.77 1.583-3.08 1.821-.32.237-3.01 1.108-4.12.791-1.11-.317-3.16.317-3.96.317-.79 0-3.4-1.029-4.03-1.108-.64-.08-1.51 1.029-2.38 1.424-.87.396-1.98.079-2.53 0-.55-.079-1.66-2.374-3.48-3.087-1.82-.712-4.59-.554-5.54-.712-.95-.158-6.65-3.483-8.31-4.353-1.67-.871-3.57-.317-4.44 0-.87.316-3.95.316-4.35.475-.4.158-3.8 2.137-4.59 2.137h-6.81c-.31 0-2.37-1.583-2.85-1.742-.47-.158-1.5.713-2.13 1.188-.64.475-2.3-.475-2.62-.475-.25 0-1.53.686-2.13 1.029l-.56-.554c-1.13-1.267-3.43-3.863-3.56-4.116-.16-.317-.79-.95-1.19-.554-.39.396-2.92 1.266-3.56 1.504-.63.237-2.77 0-3.24 0-.48 0-1.74.633-2.06.791-.32.158-4.35-7.123-4.67-7.44-.32-.317-2.22-.633-2.53-.633-.32 0-1.43.871-2.22 1.345-.79.475-1.9.475-2.45.554-.56.08-3.8-2.216-4.52-2.374-.71-.158-5.3-.158-5.61.475-.32.633-4.04 3.878-4.44 3.878-.39 0-6.25.871-6.57 1.108-.31.238-2.45-1.82-2.85-1.899-.39-.079-2.13.633-2.69.791-.55.159-3.4 4.828-4.43 5.382-1.03.555-4.04-1.266-5.38 1.109-1.3 2.299-2.24 2.297-3.66 2.295h-.14c-1.51 0-4.2.317-5.23.396-1.02.079-3.4-1.979-5.46-1.9-2.05.079-3 1.425-3.8 1.504-.79.079-1.9-.317-3.32-.317s-3.4 1.188-3.8 1.188c-.39 0-1.74-2.771-2.29-3.483-.56-.712-2.22.712-2.77.712-.56 0-4.12 5.303-4.67 5.857-.56.555-4.2.713-4.67.871-.48.158-6.34-2.137-6.73-2.137-.4 0-2.3 1.187-2.69 1.504-.38.302-3.35-.693-4.24-.991l-.12-.038c-.71-.238-2.13-2.77-2.93-2.77-.79 0-2.84 2.453-3.08 2.77l-.01.013c-.26.348-1.51 2.021-2.92.224-1.14-1.456-4.06-1.767-5.38-1.741-.32-.475-1.05-1.678-1.43-2.691-.47-1.266-2.21-3.245-3.01-4.116-.63-.696-2.26-3.878-3-5.382-.32-.475-3.01 7.836-3.09 8.232-.08.395-5.07 4.036-5.78 4.274-.71.237-2.29-.634-3.08-.554-.8.079-2.38 3.799-3.25 4.274-.87.475-4.35.712-4.99.396-.63-.317-5.06 2.374-5.85 2.691-.79.316-2.54-1.979-3.09-2.375-.55-.396-5.62 2.77-5.86 2.77-.23 0-.47-2.453-.87-3.086-.39-.634-1.5-5.224-2.06-6.807-.55-1.583-2.45-6.016-2.77-6.412-.31-.395-3.16-1.424-4.43-1.978-1.26-.554-5.38-2.058-6.41-2.454-1.03-.396-2.3-.396-3.4-.396-1.11 0-1.82.554-2.77 1.742-.95 1.187-3.09 2.057-3.88 2.216-.79.158-2.38-.554-2.93-1.108-.55-.554-3.64-6.728-4.75-8.311-1.11-1.583-4.12-1.108-5.14-.792-1.03.317-3.65.317-5.47 0-1.45-.253-4.77-.316-6.25-.316l-.04-.013c-.59-.198-3.72-1.246-5.5-.937-1.78.31-2.05.164-3.4-.588l-.08-.045c-1.43-.792-3.41-1.425-4.28-1.425-.87 0-3.32.871-5.06 1.425-1.74.554-3.4.237-3.96.237-.55 0-2.06 1.583-2.77 1.979-.71.396-2.14.475-3.09.317-.95-.159-8.23-6.491-8.7-6.649-.48-.158-4.91-.158-6.02-.158-1.11 0-3.96-.475-4.67-.554-.71-.08-3.56.395-4.03.395-.48 0-2.06-.475-2.7-.554-.63-.079-2.45-2.612-2.92-3.087-.48-.475-2.22-1.978-5.78-1.266s-4.43.237-4.75.237c-.32 0-.71.396-1.98-.237-1.01-.507-3.8-1.055-5.07-1.266-.55-.159-1.74.158-3.24.395-1.5.238-5.78.159-6.17.238-.4.079-2.22 1.345-2.77 1.345-.56 0-4.83-.158-5.62-.237-.8-.079-2.14-1.821-3.01-1.9-.87-.079-2.38 1.029-2.93 1.267-.56.237-2.93 2.374-3.17 2.691-.23.316-1.98.158-2.37.237-.4.079-2.77.95-3.25.871-.47-.079-5.14-3.72-5.77-4.195-.64-.475-2.7-.238-3.01-.317-.32-.079-2.77-2.453-3.09-2.453-.32 0-2.69 1.899-3.01 1.899-.31 0-.79.079-2.13-.237-1.35-.317-2.93-1.504-3.25-1.583-.32-.079-.55-.633-1.34-2.216-.8-1.583-1.83-3.483-2.06-3.483-.24 0-2.3 3.957-2.69 4.749-.4.791-2.77 4.432-3.33 5.303-.55.871-1.74.317-2.61.317-.87 0-1.42 1.029-2.3 1.583-.87.554-2.61 2.058-4.27 1.662-1.66-.396-4.51.396-6.33.396-1.82 0-4.91 2.374-5.38 2.374-.48 0-1.51-.396-2.62 0-1.1.396-2.69.396-4.19 0-1.5-.396-3.72-2.137-4.2-2.374-.47-.238-1.97.554-2.77.554-.79 0-.31.316-3.72-1.583-3.4-1.9-3.4-.713-5.77-.713-2.38 0-5.31.317-7.29-.316-1.97-.634-6.8-4.591-7.51-4.749-.72-.159-4.67.475-5.31.475-.63 0-1.9-.95-3.01-1.109-1.1-.158-5.38 1.742-6.17 1.742s-7.76-3.483-8.63-3.562c-.87-.079-5.14 5.857-6.09 6.174-.95.316-7.84-.159-8.55 0-.71.158-2.93 3.166-3.17 3.878-.23.712-7.99 3.324-8.39 3.324-.39 0-2.53-3.878-3.95-6.015-1.43-2.137-4.2-3.641-6.34-4.353-2.13-.713-6.8.791-7.28.712-.47-.079-4.59-3.641-6.09-4.353-1.51-.713-3.64-.633-4.91-.871-1.27-.237-3.64-2.454-3.88-2.454-.23 0-1.42 1.346-1.9 1.9-.47.554-3.72 2.058-5.54 2.137-1.82.079-3.48-1.187-3.88-1.583-.39-.396-2.61.712-3.08.712-.48 0-.87-2.77-4.44-6.727-2.84-3.166-6.88-4.327-8.54-4.512-.93-.155-5.11.144-6.34.232l-.07.006c-1.11.079-6.42-.554-7.05-.554-.63 0-2.22.949-2.53 1.108-.32.158-2.46.158-3.09 0-.63-.159-2.61-1.742-3.16-1.821-.56-.079-7.21.079-7.92.158-.71.08-7.84 1.109-9.42.95-1.58-.158-4.83-2.374-5.86-2.928-.97-.525-7.55-1.333-8.78-1.485l-.16-.019c-.63-.079-5.62 1.187-6.02 1.345-.39.159-4.67 0-5.14 0-.48 0-6.49-1.899-6.81-1.899-.31 0-2.85 3.562-2.85 3.799 0 .237-2.29 1.662-2.85 1.741-.55.079-2.45.079-2.77 0-.31-.079-2.77-3.561-3-3.799-.24-.237-1.35.712-3.25.554-1.9-.158-5.22-1.979-5.46-2.216-.24-.238-2.45-3.245-2.93-3.958-.47-.712-3.96-2.691-5.14-3.324-1.19-.633-3.25-1.187-4.2-1.029-.95.158-3.09 0-4.35-.158-1.27-.158-3.01.316-3.8.633s-1.74.158-2.38.238c-.63.079-6.09-.159-7.04-.317-.95-.158-2.22.396-3.56 0-1.35-.396-4.75-.475-5.15-.475-.39 0-2.45 2.216-2.85 2.375-.39.158-4.19-1.346-4.98-1.504-.79-.159-2.61.158-3.25.158-.63 0-.95-.396-2.06-.95-1.1-.554-1.1-.554-4.59-.791-3.48-.238-7.04-2.612-8.15-2.929-1.11-.317-5.93.079-6.33.079-.4 0-1.82-1.029-3.96-1.029-2.14 0-5.7.792-6.33.95-.63.158-3.72.396-4.43.158-.72-.237-4.91-.237-5.78-.316-.87-.079-4.75-1.346-5.62-1.346-.87 0-4.75 1.662-5.38 1.742-.64.079-3.25-.713-3.56-.713-.32 0-2.77.238-3.33.238-.55 0-4.91-1.267-5.38-1.267-.48 0-3.01.475-3.17.475-.12 0-2.48-.791-3.64-1.187-.71-.158-1.58-.554-1.9-.554h-1.82c-.55 0-3.96-.554-4.35-.633-.4-.08-4.99 5.936-5.7 6.332-.71.395-5.62 0-6.02 0-.39 0-5.38 3.007-5.62 3.007-.23 0-2.61-2.137-2.77-2.216-.15-.079-2.77-.158-2.92-.158-.16 0-2.77-1.029-3.09-1.029-.32 0-2.61.554-2.77.712-.16.159-2.85 0-3.09 0-.24 0-2.37-1.187-2.61-1.345-.24-.159-3.25-.396-3.48-.396-.24 0-2.77 1.187-2.85 1.266-.08.079-2.77.317-3.09.317-.32 0-2.53 2.929-2.77 3.324-.24.396-.16.079-1.34-.395-1.19-.475-3.41-2.296-3.88-2.533-.48-.238-2.62-2.85-4.12-4.512-1.5-1.662-4.35-2.374-5.06-2.612-.72-.237-2.7.475-3.09.475-.4 0-1.58-.475-2.22-.791-.63-.317-2.37 0-2.69 0-.32 0-1.11.316-1.42.316-.32 0-2.85-.475-3.01-.316-.16.158-1.9.316-2.45.316-.56 0-2.62 1.267-2.85 1.267-.24 0-3.01-2.533-3.25-2.533-.21 0-2.1 2.376-2.7 3.137l-.15.187c-.32.396-2.77-.791-3.01-.791-.23 0-1.5 1.424-1.82 1.978-.31.554-3.72 3.087-4.11 3.166-.4.079-2.77 3.8-3.09 3.8-.32 0-1.9-.554-2.37-.792-.48-.237-2.46 0-2.85 0-.4 0-2.85-.871-3.17-.871-.32 0-2.85 2.217-3.17 2.375-.31.158-2.77 4.353-2.92 4.67-.16.316-2.14-.713-2.7-.792-.55-.079-4.82 3.72-5.54 3.72-.71 0-6.17 6.016-6.41 6.174-.23.158-5.06-.475-8.7-.475-3.64 0-9.03 1.267-9.9 1.267-.69 0-3.35-.581-4.59-.871-.71-.185-10.19-1.187-10.45-1.187-.31 0-3.32.949-3.95 1.187-.64.237-2.38-.079-3.72 0-1.35.079-3.25 1.187-3.8 1.187-.56 0-2.77-1.741-4.04-2.058-1.27-.316-5.94-.87-7.28-1.266-1.35-.396-1.11-.792-1.9-1.425l-.06-.049c-.8-.635-2.01-1.611-2.63-1.534-.64.079-3.88-.158-5.46-.396-1.59-.237-8.55-1.187-9.34-1.187-.79 0-7.36 1.9-7.76 1.979-.4.079-.63-.475-1.66-1.266-1.03-.792-5.46-2.612-6.41-2.375-.95.237-5.94 5.857-6.18 6.49-.22.582-3.97 4.302-4.83 5.15l-.15.153c-.32.317-3.64-1.187-3.88-1.108-.24.079-3.33 2.058-3.96 2.375-.63.316-2.93-.158-3.4-.317-.48-.158-3.64-5.065-3.88-5.065-.24 0-3.56-.159-6.02-.238-2.45-.079-5.38-1.108-5.77-1.029-.4.079-11.16 3.087-11.48 3.008-.32-.079-3.48-3.483-3.72-3.562-.24-.079-3.72-1.425-4.04-1.425-.31 0-3.24 2.296-3.8 2.375-.55.079-3.48-1.187-3.72-1.425-.24-.237-3.4-3.403-3.8-3.562-.39-.158-3.64-.237-3.87-.316-.24-.079-.8-.871-1.11-1.267-.32-.395-6.26-8.231-6.65-8.231-.4 0-3.41.396-3.8.396-.4 0-3.8 1.662-4.2 1.899-.39.238-6.64.079-7.2 0-.55-.079-3.24-2.058-3.72-2.295-.47-.238-3.01-.554-3.8-.633-.79-.08-3.64-2.612-3.88-2.85-.23-.237-1.74 0-2.61 0-.87 0-12.03-2.691-12.74-2.77-.71-.079-3.64.95-4.28.95-.63 0-2.92-1.029-3.48-1.188-.55-.158-3.48.713-4.19.713-.72 0-3.09-.317-3.64-.317-.56 0-3.01.792-3.72.792-.72 0-3.41-1.346-3.96-1.425-.56-.079-3.56 2.295-3.8 2.533-.24.237-3.25-.95-3.72-1.108-.48-.159-3.01-3.641-3.96-4.195-.95-.554-4.75-.317-5.7-.396-.95-.079-5.46.158-5.93.396-.38.19-3.12 8.785-4.44 13.06-.39.316-2.69-.634-3.48-.792-.79-.158-3.16 1.266-3.88 1.266-.71 0-3.24-2.137-3.64-2.532-.39-.396-3.8-.079-4.27 0-.48.079-3.25 3.403-3.72 3.561-.48.159-2.61-.633-3.33-.791-.71-.158-3.48-4.512-3.88-4.67-.39-.158-3.95.554-4.35.554-.39 0-3.72 2.058-4.11 2.295-.4.238-3.01.792-3.41.792-.39 0-3.32-4.512-3.72-4.67-.39-.158-7.91-.316-8.39-.316-.47 0-2.93 1.028-3.4 1.028-.48 0-2.53-2.453-3.33-2.849-.79-.396-3.95-.871-4.51-.791-.55.079-3.32 3.561-3.64 3.64-.31.08-2.37-2.374-3.56-3.166-1.19-.791-11.32-2.137-11.87-2.137-.56 0-2.93 1.029-3.41 1.029-.47 0-4.67-4.59-5.06-5.144-.4-.554-4.83-5.224-5.78-5.778-.95-.554-3.17-1.109-4.19-1.109-1.03 0-6.81.317-7.76.317-.95 0-2.93-.871-4.28-.95-1.34-.079-7.04 1.504-7.83 1.504s-3.01-.554-3.8-.633c-.79-.079-3.64.633-4.04.633-.39 0-3.32 3.562-3.56 3.72-.24.159-1.26-3.087-1.42-3.72-.16-.633-1.98-5.145-2.54-5.145-.55 0-3.64 2.375-4.11 2.612-.48.238-3.33 3.879-3.8 3.879-.48 0-1.58-.871-2.45-1.267-.88-.395-8.32-4.116-12.43-4.432-4.12-.317-11.16 4.591-11.72 4.591-.55 0-7.04-3.562-7.44-3.72-.39-.159-3.32 1.899-4.03 1.899-.71 0-3.09-.396-3.72-.475-.64-.079-3.33.871-3.8.871-.48 0-2.3-1.346-3.09-1.821-.79-.474-4.19-4.274-4.67-4.353-.47-.079-3.88 5.778-4.11 5.778h-3.25c-.51 0-2.85-1.266-3.96-1.899-3.11-2.243-6.92-9.419-8.15-9.419-.4 0-6.33 7.994-6.73 8.785-.39.792-6.72 3.72-7.2 3.72-.47 0-6.09.08-7.2 0-1.11-.079-6.73 3.562-7.6 3.72-.87.159-7.2.634-9.58 1.109-2.37.474-1.82.633-9.34.712-7.52.079-3.08 1.979-9.18 1.979-6.09 0-11.56-2.85-14.48-2.296-2.93.554-13.7 5.937-14.09 6.095-.4.158-5.86.396-6.73.396-.87 0-6.17 1.899-7.28 1.978-1.11.08-6.49-1.266-6.97-1.266-.47 0-7.2 2.849-7.52 2.849-.31 0-1.34-1.424-2.21-1.978-.87-.554-4.44-4.195-4.83-4.195-.4 0-3.72 3.324-4.28 3.72-.55.395-9.57 10.368-9.97 10.448-.39.079-.95-1.346-1.19-2.454-.23-1.108-4.43-9.498-5.14-10.765-.71-1.266-1.58-2.928-2.3-3.64-.71-.713-4.98-7.757-5.46-7.836-.47-.079-6.8.395-7.36.395-.55 0-2.21-1.108-4.51-1.978-2.3-.871-8.94-5.224-9.81-5.303-.87-.08-6.65 4.353-7.13 4.511-.47.158-6.41-4.986-7.28-4.986-.87 0-13.61 3.007-14.17 3.007-.55 0-5.38 7.124-5.62 7.52-.24.395-7.83 10.685-8.47 10.368-.5-.253-3.11-12.03-4.35-17.888-1.01-4.495-2.22-8.469-3.09-8.864-.87-.396-6.09 1.82-6.96 1.899-.87.079-6.57-7.44-7.2-7.677-.64-.238-1.43.237-2.7 1.266-1.26 1.029-9.81 4.749-11.39 4.749-1.59 0-13.22-8.232-14.49-8.39-1.26-.158-6.41 3.799-7.28 4.432-.87.634-5.62 4.908-6.33 6.332-.71 1.425-14.01 10.527-14.64 11.477-.64.95-13.78 6.966-14.49 7.124-.71.158-6.41-6.174-7.28-6.174-.87 0-6.65 8.153-6.89 8.628-.23.474-7.52 5.223-8.07 5.857-.55.633-5.62 10.131-6.25 10.21-.64.079-5.15-10.527-6.18-12.743-1.03-2.216-1.42-1.108-1.74-.713-.32.396-6.09 8.865-6.65 9.894-.55 1.029-5.54 4.591-6.65 5.541-1.1.95-4.74 1.979-7.04 3.008-2.3 1.028-12.98 1.028-14.17 1.028-1.18 0-6.57 3.404-7.75 3.8-1.19.395-4.6.554-9.5 1.899-4.91 1.346-6.49.95-10.53 1.267-4.04.316-6.89-1.662-8.15-1.662-1.27 0-3.88 1.741-5.23 2.137-1.34.395-15.83 4.986-20.34 6.094-4.51 1.108-12.58 2.058-15.12 2.454-2.53.396-13.93.316-20.26.475-5.06.126-9.44 1.424-11 2.058-1.98.949-8.63.158-9.97.633-1.35.475-8.63 7.044-9.98 8.627-1.34 1.583-8.15 2.771-9.18 2.929-1.03.158-10.21 4.353-10.76 4.749-.56.396-9.5 1.029-9.97 1.029-.38 0-1.9-.686-2.62-1.029-2.85-.792-6.72-3.324-7.59-3.008-.88.317-5.47 6.807-6.97 8.153-1.5 1.345-6.73 5.857-7.99 8.469-1.27 2.612-7.37 8.548-9.19 10.21-1.82 1.662-9.65 5.303-11.08 6.095-1.42.791-4.51.396-7.36 0-2.85-.396-12.82 1.266-14.01 1.266-1.18 0-6.57-.475-8.15 0s-1.19.159-2.85 0c-1.66-.158-6.09 3.879-6.81 4.116-.71.237-5.3-2.295-6.25-2.454-.95-.158-5.7 3.8-6.49 4.195-.79.396-5.14-.791-6.97-1.345-1.82-.554-7.28-4.116-9.57-5.462-2.3-1.345-1.59-.949-3.09-.395-1.2.443-4.3 6.147-5.7 8.944-.31.395-.79-.396-1.42-.396-.64 0-2.46 1.266-3.33 1.662-.87.396-1.82-.396-2.21-.396-.4 0-1.82.713-2.14.95-.32.238-1.5 4.749-1.74 4.749s-1.51-3.087-1.9-2.928c-.4.158-1.66 5.144-1.9 5.382-.24.237-.63-.792-1.27-1.108-.63-.317-1.9-3.8-2.53-5.62-.63-1.82-1.19-3.562-1.58-3.641-.38-.076-.91 2.031-1.16 3.042l-.03.124c-.24.95-.48 1.583-1.58 3.878-1.11 2.296-3.88 5.541-4.75 5.858-.87.316-1.51 3.007-2.53 5.303-1.03 2.295-1.9 2.216-2.46 2.453-.55.238-1.5-.079-2.29 0-.8.08-1.82 1.188-2.38 1.821-.55.633-2.85.633-3.32 1.345-.48.713-2.14 1.346-2.77 1.346-.64 0-1.98-.396-2.77-.238-.79.159-1.27 1.742-1.98 1.425-.71-.316-.79-.712-2.14-.633-1.34.079-4.59-.317-4.91-.554-.31-.238-1.34 2.295-1.9 2.928-.55.634-.23-1.583-1.1-3.245-.87-1.662-2.62-.712-3.57-.87-.95-.159-2.37-1.662-2.69-1.662-.31 0-1.26 1.345-1.98 1.82-.71.475-2.37 1.108-3.16 1.266-.79.159-2.61.317-3.56.713-.95.395-1.19 0-2.77-.396-1.59-.396-3.8.079-4.83 0-1.03-.079-1.82-.95-3.96-1.266-2.14-.317-6.73.949-7.04 1.029-.32.079-1.67-2.058-2.38-2.138-.71-.079-2.93.713-4.43 2.138-1.5 1.424-2.06.633-2.77.712-.71.079-1.58 1.979-1.9 1.979-.32 0-1.11-1.267-1.74-1.267-.64 0-1.35 1.108-1.82 1.267-.48.158-.79-1.188-2.46-3.325-1.33-1.709-4.4-3.139-5.77-3.641-1.11 0-1.82 2.137-2.93 3.246-1.11 1.108-2.46 5.857-2.85 6.411-.4.554-3.96-1.029-4.59-.871-.64.158-1.59 4.907-2.3 5.461-.71.555-4.91.475-6.01.475-1.11 0-1.27-.633-2.54-.791-1.26-.158-2.21.633-4.03.791-1.82.159-3.01.713-4.2 1.979-1.19 1.267-2.06 1.979-3.09 2.375-1.02.395-2.29 2.849-2.77 2.295-.47-.554-1.26-.475-1.74-.633-.47-.158-2.13-2.137-2.61-2.058-.47.079-1.58 2.691-2.37 3.641-.79.95-1.35.158-2.46.158-1.1 0-3.48 2.533-4.11 3.008-.64.475-1.27.079-2.38-.238-1.11-.316-5.3-2.453-6.65-2.77-1.34-.316-2.29.317-4.74.792-2.46.475-2.54.316-3.88-.238-1.35-.554-1.82.238-2.3.238-.47 0-2.21-2.137-2.85-2.296-.63-.158-1.42 1.583-2.61 3.008s-3.17 1.741-3.96 1.82c-.79.08-1.66 1.583-2.45 2.375-.79.791-.79.158-3.17 0-2.37-.158-2.21.079-2.61.554-.39.475-1.42.95-2.37.792-.95-.159-1.43.237-1.98.87-.56.633-2.3 1.187-3.17 1.187-.87 0-2.77-.87-3.88-1.187-1.1-.316-2.53 1.029-3.24.713-.71-.317-1.03-4.591-3.01-4.275-1.98.317-2.85-.791-3.64-.791s-3.8 2.77-4.43 2.928c-.64.159-2.54-2.216-2.77-2.137-.24.08-1.51 4.829-2.46 5.937-.95 1.108-3.8 6.886-4.19 7.202-.4.317-1.51-1.029-2.06-1.029s-2.3 3.246-2.53 3.72c-.24.475-1.51.792-2.22.634-.71-.159-1.74-.871-2.06-1.346-.31-.475-1.98-4.195-2.45-4.511-.48-.317-3.72-5.62-4.04-5.937-.31-.316-1.74-.475-2.21-.475-.48 0-1.59-2.374-2.38-3.403-.79-1.029-4.27-.475-4.75-.633-.47-.159-1.5-2.691-1.98-3.325-.47-.633-3.87-1.978-4.82-2.137-.95-.158-1.9 1.188-2.3 1.346-.39.158-.39 0-1.03-.95-.63-.95-1.19-1.029-2.29-1.029-1.11 0-.8 0-1.51-.712-.71-.713-3.16-2.216-3.88-2.454-.71-.237-1.26-.158-2.29 1.187-1.03 1.346-2.14.317-2.69.475-.56.159-2.22 3.562-2.61 4.195-.4.633-2.22.238-2.85.238-.64 0-2.22-.475-2.77-.238-.56.238-.4.159-.95-.475-.56-.633-3.72-4.907-4.36-4.907-.63 0-4.75 2.612-5.14 3.008-.4.395-1.27 3.007-1.74 3.087-.48.079-.32-.713-.56-1.425-.23-.712-1.11-4.037-1.34-4.512-.24-.475-1.9-1.741-2.38-1.978-.47-.238-2.06-4.512-2.29-4.829-.24-.316-1.35-.87-2.85-1.108-1.51-.237-2.46.713-3.17.871-.71.158-.63.791-1.11.396-.47-.396-.87-.634-1.42-1.029-.55-.396-1.5-2.296-1.66-2.691-.16-.396-1.27-1.821-1.59-1.821-.31 0-1.5.238-2.37 0-.87-.237-1.19-.554-1.9-.554s-.87 0-1.66-.317c-.79-.316-2.06.871-2.3 1.109-.23.237-.55.554-.79.316-.24-.237-1.03-.633-1.74-.791-.71-.159-2.22-2.691-2.53-2.85-.32-.158-.79.159-1.43 1.029-.63.871-2.61 1.425-3.16 1.504-.56.079-2.22 3.008-2.46 3.404-.23.395-1.74 1.82-3.01 1.741-1.26-.079-2.61 1.266-4.11 1.741-1.2.38-2.93.158-3.64 0-.95 0-1.66-.712-2.22-.633-.55.079-.95.475-1.58.633-.63.158-1.58 1.9-2.69 3.008-1.11 1.108-1.11.712-1.66.158-.56-.554-2.22-1.662-2.7-1.741-.47-.079-.79.712-2.13.791-1.35.08-2.69-1.187-3.49-.949-.79.237-1.58 1.978-1.74 2.295-.15.317-1.5-.871-1.74-.871s-1.5 2.296-1.66 2.296c-.16 0-1.35-3.72-1.82-3.72-.48 0-1.58 1.266-1.98 1.266-.39 0-1.5 2.295-1.98 2.849-.47.554-1.26 4.67-1.42 4.829-.16.158-1.82-5.383-2.3-6.649-.47-1.266-1.53-9.973-1.69-10.369-.16-.395-1.98-1.029-2.29-1.029-.32 0-1.67 3.008-1.9 3.325-.24.316-1.11.791-1.51.712-.39-.079-1.11-.237-1.42-.317-.32-.079-.95-2.058-1.19-2.691s-2.61-5.303-3.01-4.511c-.39.791-1.74 5.778-1.82 6.332-.08.554-1.66 4.195-1.74 4.511-.08.317-1.19.871-1.42.871-.24 0-1.59-1.346-1.98-1.346-.4 0-1.9 1.663-2.14 1.979-.24.317-1.66 7.678-1.74 8.232-.08.554-1.74 4.353-1.9 4.907-.16.554-1.11 5.303-1.35 5.303-.23 0-1.26-5.461-1.42-6.253-.16-.791-.82-4.036-1.22-4.986-.39-.95-1.34-3.72-1.74-3.641-.37.075-.68 1.926-.78 2.524-.07.475-1.64 4.125-1.88 4.125s-.55-4.829-.55-5.541c0-.712-.7-28.257-.85-28.811-.16-.554-1.11-27.836-1.19-29.181-.08-1.346-.56-3.166-.95-3.008-.4.158-1.03 25.936-1.11 27.124-.08 1.187-4.35 8.706-4.42 9.814-.08 1.108-1.19 6.253-1.35 6.886-.16.634-1.35 3.404-1.5 3.72-.16.317-.8.634-1.43.871-.63.238-1.9 2.612-2.14 2.929-.23.316-1.34.395-1.97 1.424-.64 1.029-1.59 7.045-1.75 7.757-.15.712-3 4.907-3.32 5.303-.32.396-1.66.396-2.22.554-.55.159-.31.871-2.92 1.346-2.62.475-3.72 4.116-4.36 4.353-.63.238-2.53 2.533-3.08 3.008-.56.475-1.03 1.979-1.51 1.662-.47-.317-1.58-2.849-1.82-2.691-.24.158-1.11.712-1.98.87-.87.159-3.72 6.333-5.46 7.678-1.74 1.346-4.19.475-6.65.475-2.45 0-3.16 1.187-3.64 1.346-.47.158-.32-.95-1.66-1.346-1.35-.396-5.94 1.741-6.73 2.216-.79.475-1.9-1.266-2.45-1.425-.56-.158-1.98 2.058-2.46 2.692-.47.633-2.29 1.266-2.69 3.324-.39 2.058-2.53 9.26-2.69 9.815-.16.554-.16.87-1.11 1.978-.95 1.108-1.9 1.267-2.85 1.267-.95 0-2.21-.634-2.69-.634-.47 0-1.66 1.9-2.05 2.296-.4.396-2.14 3.087-2.54 3.562-.39.475-.95.237-1.58.237-.63 0-.95.317-1.98 1.108-1.03.792-1.9 1.108-2.77 1.108-.87 0-1.66 1.267-2.29 1.346-.64.079-1.75-2.058-2.06-2.375-.26-.253-1.11 0-1.51.159-.47.237-.47 1.741-.55 2.137-.08.395-.32.791-.55.95-.24.158-.24.079-.24-.396 0-.475-.24-1.504-.64-1.504-.39 0-.55 1.266-.63 1.504-.08.237-.16.633-.32.712-.15.079-.47.238-.55.792-.08.554-.55 3.403-.71 3.957-.16.554-.16 1.9-.32 1.979-.16.079-.24-.238-.31-.633-.08-.396-.16-.475-.56-.396-.39.079-.39.317-.71.396-.32.079-.4 2.612-.48 2.928-.08.317 0 .554-.31.554-.32 0-.64.475-.87.871-.24.396-.48 2.295-.8 3.166-.31.871-.55 1.108-.79 1.266-.23.159-.23.792-.63 2.296-.4 1.504-1.42 3.482-1.58 3.878-.16.396-.4.317-.64.475-.23.158-.55.792-.71.871-.16.079-.08-.475-.16-1.188-.08-.712-.47-.712-.55-.554-.08.159-.48.475-.71.554-.24.08-.56 2.296-.56 2.612 0 .317-.39.475-.63.634-.24.158-.4 1.583-.55 2.453-.16.871-.954 2.375-1.112 2.533-.159.158-.238-.237-.238-.712s-.237-1.108-.633-1.108-.554 1.108-.633 1.345c-.079.238-.238.079-.713.554-.475.475-.791 2.533-.949 2.85-.159.316-.08.87-.475.633-.396-.238-.396-.396-.713-.238-.316.159-1.187 2.929-1.424 3.404-.238.475-1.504.079-1.821.079-.316 0-.791.079-1.108.396-.316.316-.396.712-.633.712-.238 0-.396 0-.633.238-.238.237-.554.395-1.029.395-.475 0-1.425.238-1.821.238-.395 0-.475 0-1.108-.317-.633-.316-1.424-.079-1.741.158-.317.238-1.346.317-1.662.238-.317-.079-.475-.317-.871-.079-.396.237-.396.158-.791-.079-.396-.238-.554-.238-1.029-.317-.475-.079-1.188.712-1.504.791-.302.076-.459-.136-.679-.429l-.034-.045c-.237-.317-1.029-.634-1.899-.634-.871 0-1.662.792-2.058.871-.396.079-.396-.317-.633-.396-.238-.079-.317.159-.554.238-.238.079-.475-.159-.713-.159-.237 0-.237.238-.791.475-.554.238-.634 1.267-.95 1.504-.317.238-.554 0-1.425.079-.87.079-1.187 1.029-1.504 1.029-.316 0-.475-.87-1.266-.87-.792 0-1.583.633-2.058 1.345-.475.713-.554.554-1.662.475-1.108-.079-1.346.317-1.583.792-.238.475-.633.949-1.267.87-.633-.079-.712.079-1.029.396-.316.317-.237.079-1.029.079-.791 0-1.028-.316-1.187-.396-.158-.079-.633.08-.95.475-.316.396-1.108.634-1.503.634-.396 0-.08-.396-.871-.95-.765-.535-.864-.332-.942-.175l-.008.016c-.079.159-.633.713-1.029.713-.395 0-.95.712-1.187.712-.238 0-.396-.791-.554-1.345-.158-.554-.396-1.742-1.187-1.9-.792-.158-.871.317-1.267.317-.395 0-1.108-.555-1.662-.634-.554-.079-.791.08-1.345.238-.554.158-.713-.079-1.029-.159-.317-.079-.792-.633-1.821-.633s-1.345.871-1.504.871c-.158 0-.316-.871-.396-1.187-.079-.317-.712-1.346-1.662-1.504-.949-.158-1.266.712-1.741 1.187-.475.475-.317 0-1.266 0-.95 0-1.583.396-2.296.633-.712.238-.87.238-1.029-.079a.422.422 0 00-.475-.237c-.316 0-.475-.554-.949-.634-.475-.079-.554.159-1.108.871s-.634.475-1.188.554c-.554.079-.87.95-2.295 1.662-1.425.713-1.504.317-2.691.238-1.187-.079-1.583 1.029-1.583 1.187a.515.515 0 01-.633.475c-.475-.079-.317.791-.871.871-.554.079-.871-1.425-1.108-1.663-.238-.237-.633-.158-1.108-.474-.475-.317-.713-.713-1.029-.713-.317 0-.396 1.267-.633 1.583-.238.317-.159.238-.475.317-.317.079-1.108 1.108-1.346 1.187-.237.079-.554-.396-.871-.317-.316.08-.633 1.188-.712 1.188-.079 0-.158-1.742-.158-3.166 0-1.425-.396-3.166-.633-4.512-.238-1.345-.554-1.425-1.029-1.345-.475.079-1.583 3.166-1.9 3.72-.317.554-1.504.949-2.137.949s-.95 1.267-1.187 1.346c-.238.079-.238-.158-.396-.158-.158 0-.238.316-.554.316-.317 0-.317-.475-.712-.633-.396-.158-.555.554-.95 1.029-.396.475-.95 2.295-.95 2.533 0 .237-.158.475-.475.633-.317.158-.792 1.108-1.108 1.108-.317 0-.475-.316-1.029-.316-.554 0-.633.395-1.029.712-.396.317-.237.079-.554 0-.317-.079-.237.237-.712.237s-.792-.87-1.029-.87c-.238 0-.238.475-.475.633-.238.158-.079-.238-.238-.554-.158-.317-.316-.475-.712-.475-.396 0-.554.158-.871 1.108-.316.95-.791 1.504-.95 1.662-.158.159-.316.633-.554.792-.237.158-.554-.396-.87-.238-.317.159-.713.871-.871 1.188-.158.316-.316.079-.871.158-.554.079-.395.317-.633.554-.237.237-.237.237-.791.237s-.238.159-.554.238c-.317.079-.475-.475-.792 0-.316.475-.87.237-.95.158-.079-.079-.237-.158-.475-.237-.237-.079-.237 0-.316.079-.079.079-.396 0-.633 0-.238 0-.238.079-.396.158-.158.079-.475 0-.792 0-.316 0-.712 0-.949.158-.238.159-.396.396-1.109.396-.712 0-1.424-.633-1.899-.791-.475-.159-1.187.316-1.267.475-.079.158-.395.475-.791.395-.396-.079-.633-.395-1.029-.395-.396 0-.633.791-.95 1.108-.316.316-.237.316-.712.316s-.475.317-.713.554c-.237.238-.395.475-.633.475-.237 0-.633-.475-1.424-.475-.792 0-.238.238-.792.475-.554.238-.396.079-.871.159-.475.079-.316.633-.949.554-.634-.08-2.058-.238-3.641.079-1.583.316-7.836.158-8.469.316-.634.159-1.188.08-1.742-.158-.554-.237-.791 0-1.108.079-.316.079-1.504-.316-2.295-.316-.792 0-2.137.475-2.454.475-.316 0-.237 0-.396-.159-.158-.158-.158-.158-.87-.079-.713.079-.396-.079-.713-.237-.316-.159-.554.158-.949.158-.396 0-1.742-.95-2.217-.475-.474.475-1.741.554-2.058.712-.316.159-.949 0-1.108-.079-.158-.079-.316-.079-.554.159-.237.237-.554 0-1.108 0s-1.029.395-1.345.395c-.317 0-.396 0-1.504-.395-1.108-.396-2.533 0-2.77.158-.238.158-.238.079-.555-.079-.316-.159-.395.079-.554.158-.158.079-.395.237-.712.237-.317 0-.475-.158-.633-.158-.158 0-.396.158-.475.317-.079.158-.633-.079-.712.079-.079.158-.396.316-.555.079-.158-.237-.474-.158-.712-.158-.237 0-.237 0-.554-.238-.316-.237-.475-.079-.95-.079-.474 0-.554.079-.791-.237-.238-.317-.475-.634-1.029-.871-.554-.237-.95-.158-1.267-.158-.316 0-1.108-.159-1.503.395-.396.555-.634.634-.713.634-.079 0-.237-.079-.475.079-.237.158-.158.158-.475 0-.316-.158-.316 0-.712 0-.396 0-.079-.158-1.108-.317-1.029-.158-1.346.238-1.583.554-.237.317-.316.317-1.108-.079-.791-.396-2.77-.475-3.641-.475s-.871.792-1.504 1.346-1.187.079-1.425.079c-.237 0-.316.317-.554.158-.237-.158-.237-.633-.712-.316-.475.316-.396.158-.95-.159-.554-.316-.475-1.108-.87-1.899-.396-.792-1.663-1.346-1.9-1.346-.238 0-1.187.633-1.9.713-.712.079-.712-.238-.95-.475-.237-.238-.633-.317-1.028-.317-.396 0-.317-.317-.634-.317-.316 0-1.108.871-1.266 1.109-.158.237-.95.395-1.108.237-.158-.158-.554-.317-.713-.237-.158.079-.237.474-.474.395-.238-.079-.475-.554-1.029-1.504-.554-.949-.95-.554-1.504-.474-.554.079-1.029-.475-1.267-.475-.237 0-.395.079-.949.791-.554.712-.554-.079-.792-.95-.237-.87-.712-.949-1.029-.949-.317 0-.554.791-.871.87-.316.079-1.028-.633-1.345-.633-.317 0-.475.317-.633.633-.159.317-.396.158-.396 0s-.475-1.187-.792-1.187c-.316 0-.554.633-.633.712-.079.079-.237-.079-.475-.079-.237 0-.395.317-.554.633-.158.317-.87 3.087-.87 3.245 0 .159-.238.396-.396.238-.158-.158-.238-.475-.871-.238-.633.238-1.029 1.742-1.266 2.058-.238.317-.317.238-.792.238-.475 0-.95.475-1.108.475-.158 0-.158-.396-.871-.317-.712.079-1.345.712-1.503.792-.159.079-.634-.475-1.267-.475-.633 0-.791 1.187-1.029 1.662-.237.475-.87.158-1.029.158-.158 0-.554 0-.712.158-.158.159-.554.08-.871-.158-.316-.237-1.108 0-1.504 0-.395 0-.791.475-1.108.554-.316.079-.712-.079-1.503-.079-.792 0-.95.554-1.188.554-.237 0-.316-.791-1.266-.791s-1.425.712-2.295 1.266c-.871.554-1.03.158-1.346.158-.317 0-.633.079-.871.238-.237.158-.95.237-1.108.237-.158 0-.158.079-.396.159-.237.079-.633-.238-.87 0-.238.237-.95.316-1.187.079-.238-.238-.475-.554-.792-.634-.317-.079-.396.238-.633.238-.238 0-.554-.712-.633-1.029-.079-.317-.159-.396-.871-.554-.712-.158-.633.317-1.029.317-.396 0-.95-.317-1.266-.475-.317-.159-.317.237-.871.316-.554.079-.792-.079-1.267-.316-.379-.19-1.108-.317-1.424-.317-.158 0-.554-.079-.871-.079-.316 0-1.029-.871-1.187-.871-.158 0-.317.238-.317.475 0 .238-.791 1.583-1.741 1.583-.95 0-.871-1.029-1.504-.95-.633.079-.791.871-1.029 1.188-.237.316-.396.791-.87.712-.475-.079-1.267-1.266-1.188-1.741.079-.475-.316-1.267-.87-1.9s-2.137-.633-2.296-.475c-.158.158-.396.079-.554-.079-.158-.158-.712-.317-.87-.317-.159 0-.396.317-.634.079-.237-.237-.316-1.028-1.583-1.662-1.266-.633-2.533-.475-2.849-.316-.317.158-.554.712-1.029.712-.475 0-.633-.079-1.108-.871-.466-.776-.856-.943-1.394-1.174l-.031-.013c-.554-.237-.871.475-1.187.238-.317-.238-.317-1.663-.871-1.425-.554.237-.475 1.583-.712 2.137-.238.554-.475 0-.633.396-.159.395-.238.554-.713.554s-.316-.396-.554-.95c-.237-.554-.316-.475-.87-1.266-.554-.792-1.346-.95-1.583-.871-.238.079-.554 1.741-.713 1.9-.158.158-.316-1.663-.316-2.612 0-.95-.396-1.109-.713-1.346-.316-.237-.554-.079-.791-.079-.238 0-.238-.633-.238-.871 0-.237-.87-1.82-1.029-2.058-.158-.237-.474-1.029-1.187-.475-.712.554-.871.159-1.266-.554-.396-.712-1.583-.87-1.821-.633-.237.238-.395.633-.554.475-.158-.158-.712-3.72-.791-4.195-.079-.475-.317-1.108-.95-1.108s-.238 0-.792-.633-.791-.554-1.187-.554-.871.712-1.029.95c-.158.237-.237.712-.633.237s-.871-.712-1.266-.633c-.396.079-1.346 4.432-1.583 4.432-.238 0-.475-1.504-.871-1.583-.396-.079-.079.238-.712.633-.634.396-.475 2.929-.713 3.879-.237.95-.237.95-.554.791-.316-.158-.158-1.583-.158-2.453 0-.871-.317-2.692-.554-3.325-.238-.633-.554-.712-.95-.791-.396-.079-.396-1.504-.396-3.087 0-1.583-1.187-3.641-1.345-3.799-.159-.159-1.108 0-1.504-.079-.396-.08-.633-.871-.792-1.029-.158-.159-.633.237-.791-.08-.158-.316-.396-.554-.713-.554-.316 0-.87 1.267-1.187 1.346-.316.079-1.187.079-1.345-.079-.159-.159-.475-.792-.713-.792-.237 0-.237.159-.395.396-.159.237-.238 1.425-.396 1.504-.159.079-.712-.95-.95-1.267-.237-.316-.475-.237-1.583-.633-1.108-.395-.712-.791-1.029-1.583-.317-.791-.712-1.108-.871-.95-.158.159-.475 1.583-.633 1.742-.158.158-.158-.317-.237-.554-.079-.238-.238-1.346-.633-1.346-.396 0-.475.475-.792.871-.317.396-.317 1.741-.475 1.82-.158.079-.396-2.612-.633-3.007-.238-.396-.237-.396-.633-.396s-.633-1.187-1.108-2.454c-.475-1.266-1.9-1.108-2.217-1.029-.253.064-.316.396-.316.554-.053-.818-.238-2.453-.554-2.453-.396 0-.713 3.482-.871 3.72-.158.237-.554-4.274-.554-5.62s-.554-3.562-1.425-3.483c-.87.08-1.108 5.383-1.266 5.383-.158 0-.158-1.742-.158-2.217 0-.474-.396-14.484-.554-20.579-.127-4.875-.528-5.356-.713-4.986-.158.105-.538.728-.791 2.374-.317 2.058-.871 22.242-1.108 22.875-.238.633-1.583 6.648-1.583 9.023 0 2.374-1.109 12.743-1.267 13.297-.158.554-.237 1.029-.633 1.187-.396.159-.791 1.029-1.029 1.109-.237.079-.554-.475-.95-.634-.396-.158-.95.159-1.108.95-.158.792-.95 2.691-1.266 2.612-.317-.079-.95 2.454-1.188 2.533-.237.079-.395-1.741-.554-1.9-.158-.158-.474-.079-1.029-1.029-.554-.949-.949-1.029-1.187-1.108-.237-.079-.158 1.108-.396 1.108-.237 0-.158-1.187-.554-1.345-.395-.158-.95.95-1.029 1.345-.079.396.001 3.166-.712 4.274-.57.887-1.082 3.061-1.266 4.037-.053-.053-.238-.095-.554.158-.317.254-.977.581-1.267.713-.237-.053-.855-.079-1.425.237-.712.396-.87.317-1.187.159-.316-.159-.633-.317-.712.158-.079.475-.792 2.216-1.346 3.008-.443.633-1.081.844-1.345.87-.185-.184-.618-.443-.871 0-.316.554-1.266 1.108-2.612 1.029-1.345-.079-2.77.396-3.324.633-.554.238-1.662.634-2.375.238-.712-.396-1.504.396-2.374 0-.871-.396-4.433-.238-5.224-.238-.792 0-1.9 0-2.691.238-.792.237-4.116-.238-5.382-.238-1.267 0-5.699 0-6.807-.316-1.109-.317-2.375.316-3.879.316s-1.978-.316-2.928-.475c-.95-.158-5.62.317-6.332.713-.713.396-1.346.079-1.663 0-.316-.079-.554.475-1.108.712-.554.238-2.691 0-3.72 0-1.029 0-1.82.317-2.453.317-.634 0-1.109-.317-2.138-.317-.823 0-1.662.211-1.978.317h-7.757c-1.504 0-43.363.316-44.55.316-.95 0-6.095-.105-8.549-.158h-2.77c-1.266 0-1.979.238-2.612 0-.633-.237-1.979-.396-2.533 0-.554.396-5.699 0-6.253.238-.443.19-2.401.237-3.324.237H0m6741.26-378.437c.32 0 1.42.138 1.74.138l-1.74-.138zM6743 316c1.5 0 1-1.5 2-2s1 2.5 2 2.5 3 .5 3.5 3 2-3.5 3.5-3.5" stroke="#69D6FF" stroke-width="2"/><path d="M6754 316c5.85 0 16.86-1.844 18.53-2.888 2.08-1.306 10.87-9.791 13.42-10.182 2.54-.392 14.58-3.916 17.12-5.091 2.55-1.175 15.74-3.937 17.13-5.373 1.39-1.435 4.86-4.699 10.87 2.35 4.82 5.639 9.41 3.368 11.11 5.761 1.39 1.784 4.4.705 5.32.183 1.16-.653 8.8-5.923 10.19-6.315 1.38-.392 8.33-2.219 9.72-2.741 1.38-.522 18.28-1.958 19.67-2.089 1.38-.13 8.79 7.832 9.71 9.268.93 1.436 7.18-15.795 8.8-16.578 1.62-.783 13.65-8.354 15.73-8.746 2.09-.391 19.91 8.746 21.29 10.704 1.39 1.958 30.55-18.797 34.02-22.06 3.47-3.264 32.4-16.578 39.81-18.406 7.4-1.827 21.05 16.448 25.91 18.406 4.86 1.958 12.73-6.788 15.51-8.616 2.78-1.827 31.93 26.238 36.79 26.238 4.86 0 25-24.019 25-26.238 0-2.219 24.53-11.226 26.38-12.923 1.85-1.697 16.89-22.322 17.35-23.888.47-1.566 39.34-33.809 47.44-36.811 8.1-3.002 15.51-20.103 33.79-27.935 18.28-7.832 21.29-29.37 22.21-33.417.93-4.047 51.15-6.396 55.31-8.615 4.17-2.22 12.04-17.1 14.12-21.017 1.66-3.133 21.52 15.752 31.24 25.585 12.8-7.223 38.41-22.452 38.41-25.585 0-3.133 11.42-17.579 17.13-24.41 10.72-1.697 33.97-6.344 41.19-11.357 9.02-6.265 16.89-5.09 21.06-18.144 3.33-10.443 21.6-20.625 30.31-24.41 18.13-1.697 56.19-6.005 63.41-9.66" stroke="#FBFF33" stroke-width="2"/></svg>