<svg width="826" height="317" viewBox="0 0 826 317" fill="none" xmlns="http://www.w3.org/2000/svg"><path d="M0 316c5.847 0 16.86-1.844 18.526-2.888 2.082-1.306 10.876-9.791 13.422-10.182 2.545-.392 14.579-3.916 17.124-5.091 2.546-1.175 15.736-3.937 17.125-5.373 1.388-1.435 4.86-4.699 10.876 2.35 4.814 5.639 9.411 3.368 11.108 5.761 1.389 1.784 4.397.705 5.323.183 1.157-.653 8.793-5.923 10.182-6.315 1.388-.392 8.331-2.219 9.719-2.741 1.388-.522 18.282-1.958 19.67-2.089 1.389-.13 8.794 7.832 9.719 9.268.926 1.436 7.174-15.795 8.794-16.578 1.62-.783 13.654-8.354 15.736-8.746 2.083-.391 19.902 8.746 21.29 10.704 1.389 1.958 30.547-18.797 34.018-22.06 3.471-3.264 32.398-16.578 39.803-18.406 7.405-1.827 21.059 16.448 25.918 18.406 4.86 1.958 12.728-6.788 15.505-8.616 2.777-1.827 31.935 26.238 36.795 26.238 4.859 0 24.992-24.019 24.992-26.238 0-2.219 24.53-11.226 26.381-12.923 1.852-1.697 16.894-22.322 17.356-23.888.463-1.566 39.341-33.809 47.44-36.811 8.1-3.002 15.505-20.103 33.786-27.935 18.282-7.832 21.29-29.37 22.216-33.417.926-4.047 51.142-6.396 55.308-8.615 4.165-2.22 12.033-17.1 14.116-21.017 1.666-3.133 21.521 15.752 31.241 25.585 12.804-7.223 38.414-22.452 38.414-25.585 0-3.133 11.417-17.579 17.125-24.41 10.722-1.697 33.971-6.344 41.191-11.357 9.025-6.265 16.893-5.09 21.059-18.144 3.332-10.443 21.598-20.625 30.315-24.41C779.72 8.963 817.78 4.655 825 1" stroke="#FBFF33" stroke-width="2"/></svg>